<svg width="392" height="445" viewBox="0 0 392 445" fill="none" xmlns="http://www.w3.org/2000/svg">
  <g clip-path="url(#clip0_1320_7040)">
    <path d="M303.102 333.6C239.747 410.208 168.497 455.861 143.395 435.101C118.292 414.341 148.475 334.725 211.83 258.118C275.184 181.51 347.72 136.919 372.823 157.679C397.925 178.439 366.457 256.992 303.102 333.6Z" fill="#E9EBFF"/>
    <path d="M48.5484 322.059C23.4456 301.299 19.9965 264.968 40.7307 239.897C61.465 214.825 97.7973 211.394 122.9 232.154C148.003 252.914 152.737 290.307 132.003 315.379C111.269 340.451 73.6511 342.819 48.5484 322.059Z" fill="#E9EBFF"/>
    <path d="M227.042 169.048C191.333 212.227 127.065 218.296 83.8328 182.543C40.6003 146.79 34.4988 82.5249 70.2078 39.3459C105.917 -3.83305 170.185 -9.90228 213.417 25.8511C256.65 61.6044 262.751 125.869 227.042 169.048Z" fill="#E9EBFF"/>
  </g>
  <defs>
    <clipPath id="clip0_1320_7040">
      <rect width="392" height="445" fill="white"/>
    </clipPath>
  </defs>
</svg>
