<svg width="150" height="60" viewBox="0 0 150 60" fill="none" xmlns="http://www.w3.org/2000/svg">
<g clip-path="url(#clip0_1109_918)">
<path fill-rule="evenodd" clip-rule="evenodd" d="M96.4323 30.0133C96.4323 26.898 94.486 25.0373 91.567 25.0233C88.61 25.0233 86.7011 27.0753 86.7011 29.9853C86.7011 33.1147 88.6473 34.976 91.567 34.976C94.5247 34.976 96.4323 32.9213 96.4323 30.0133ZM94.721 30C94.721 32.0253 93.5133 33.3907 91.5797 33.3907V33.3887C89.5036 33.3753 88.4143 31.8867 88.4143 29.9993C88.4143 27.9873 89.6087 26.622 91.555 26.608C93.6311 26.622 94.721 28.1107 94.721 29.9993V30ZM116.115 30.0133C116.115 26.898 114.169 25.0373 111.249 25.0233C108.291 25.0233 106.384 27.0753 106.384 29.9853C106.384 33.1147 108.33 34.976 111.249 34.976C114.207 34.976 116.115 32.9213 116.115 30.0133ZM114.403 30C114.403 32.0253 113.195 33.3907 111.262 33.3907L111.263 33.3887C109.187 33.3753 108.097 31.8867 108.096 29.9993C108.096 27.9873 109.291 26.622 111.238 26.608C113.314 26.622 114.403 28.1107 114.403 29.9993V30ZM117.816 34.822V25.1733H121.759C123.784 25.1733 124.821 25.9727 124.821 27.5713C124.821 28.674 124.407 29.4047 123.472 29.7913C124.588 29.998 125.094 30.7553 125.094 32.01C125.094 34.0087 123.745 34.822 121.538 34.822H117.816ZM121.526 29.2533C122.551 29.2533 123.199 28.7713 123.199 27.944C123.199 27.172 122.719 26.758 121.565 26.758H119.437V29.2533H121.526ZM121.645 33.2367C122.889 33.2367 123.461 32.81 123.461 31.886C123.461 30.962 122.813 30.604 121.671 30.604H119.439V33.2373H121.645V33.2367ZM129.791 28.178H128.558V25.1733H126.937V34.822H129.806C132.453 34.822 133.88 33.6913 133.88 31.4447C133.88 29.2673 132.671 28.178 129.791 28.178ZM128.558 33.2367V29.7633H129.934C131.516 29.7633 132.204 30.218 132.204 31.4033C132.204 32.7133 131.426 33.2367 129.908 33.2367H128.558Z" fill="black"/>
<path d="M137.199 30.6453H141.377L141.379 29.06H137.201V26.758H141.859V25.1733H135.577V34.822H142V33.2367H137.199V30.6453Z" fill="black"/>
<path fill-rule="evenodd" clip-rule="evenodd" d="M99.7522 31.8173V34.822H98.1296V25.1733H101.153C104.02 25.1733 105.242 26.262 105.242 28.44C105.242 30.6867 103.814 31.8173 101.153 31.8173H99.7522ZM99.7522 26.758V30.2313H101.27C102.775 30.2313 103.554 29.708 103.554 28.3987C103.554 27.2133 102.879 26.7587 101.296 26.7587L99.7522 26.758ZM77.502 33.2367C78.0207 31.9273 78.3969 30.108 78.4361 27.172L78.4621 25.1733H84.8455V33.2367H85.8968V36.614H84.3787V34.822H78.034V36.614H76.5159V33.2367H77.502ZM79.0853 33.2367H83.2235V26.758H79.9416V27.2133C79.8896 29.7353 79.6021 31.7207 79.0853 33.2367Z" fill="black"/>
<path d="M71.845 25.0353C70.4048 25.0353 69.3541 25.49 68.8348 25.89L68.8335 28.288C69.3655 27.434 70.4688 26.5933 71.8438 26.6207C72.8039 26.648 73.5563 27.006 73.5563 27.902C73.5563 28.6193 73.1541 29.212 71.9863 29.212H70.6233V30.632H71.9989C73.4132 30.632 74.0098 31.032 74.0098 31.8853C74.0098 32.8653 73.1282 33.3607 72.0249 33.3747C70.351 33.3887 69.1698 32.6167 68.6125 31.638V33.7607C69.0951 34.3393 70.351 34.974 71.9989 34.9607C74.4385 34.9467 75.6963 33.6647 75.6963 31.9967C75.6963 30.728 75.0237 29.9567 73.6222 29.736C74.6735 29.336 75.2315 28.592 75.2315 27.4613C75.2315 25.766 73.8818 25.0493 71.845 25.0353Z" fill="black"/>
<path d="M33.6304 33.0967C34.22 33.1001 34.8009 32.9462 35.3188 32.6493L35.7527 32.4007L37.0187 33.3867C36.1827 34.3313 34.9521 34.8507 33.5417 34.8507C32.1933 34.8507 30.9609 34.3447 30.0799 33.4347C29.1983 32.524 28.7125 31.2587 28.7125 29.884C28.7125 28.5093 29.2053 27.2627 30.085 26.3853C30.9653 25.5073 32.1965 25.0233 33.5544 25.0233C34.8058 25.0233 35.9002 25.4253 36.7198 26.186L36.8129 26.2687L35.4094 27.3613C34.8913 26.9698 34.2675 26.7637 33.6297 26.7733C31.8665 26.7733 30.5859 28.1027 30.5859 29.9347C30.5859 31.7667 31.8672 33.0967 33.6304 33.0967Z" fill="black"/>
<path fill-rule="evenodd" clip-rule="evenodd" d="M43.0138 28.8793H40.6331V26.7413H44.4331L46.4807 25.1467H38.6768V34.722H42.7586C45.05 34.722 46.3642 33.6253 46.3642 31.714C46.3661 29.886 45.1754 28.8787 43.0138 28.8787V28.8793ZM42.6731 33.128H40.6338V30.474H42.6731C43.9157 30.474 44.4927 30.918 44.4927 31.8007C44.4927 32.7033 43.8783 33.128 42.6731 33.128Z" fill="black"/>
<path d="M55.0433 25.1467L52.9945 26.7413H50.1445V29.0827H54.3226V30.6767H50.1445V33.128H55.0427V34.7227H48.1881V25.1473H55.0427L55.0433 25.1467Z" fill="black"/>
<path fill-rule="evenodd" clip-rule="evenodd" d="M56.8641 25.1467H60.5964C62.9777 25.1467 64.4559 26.46 64.4559 28.5733C64.4559 30.6873 62.9764 32.0107 60.5957 32.0107H58.8205V34.7227H56.8641V25.1473V25.1467ZM58.8211 30.416H60.5546C61.8086 30.416 62.4983 29.7633 62.4983 28.5787C62.4983 27.394 61.8079 26.7413 60.5546 26.7413H58.8205L58.8211 30.416Z" fill="black"/>
<path d="M22.523 25.1087C22.8819 25.6001 23.1856 26.1337 23.428 26.6987L16.55 32.0707L13.6753 30.162V27.8653L16.5494 29.774L22.523 25.1087Z" fill="black"/>
<path d="M10.7441 30C10.7441 29.8967 10.7467 29.794 10.7511 29.6927L9.00944 29.6C8.95457 30.7154 9.1221 31.8305 9.50125 32.8736C9.8804 33.9167 10.4628 34.8647 11.2109 35.6567L12.4459 34.348C11.3546 33.1927 10.7427 31.6292 10.7441 30Z" fill="black"/>
<path d="M16.5493 23.8474C16.6469 23.8474 16.7431 23.8514 16.8394 23.8567L16.9268 22.01C15.8718 21.9534 14.8173 22.132 13.8324 22.5341C12.8475 22.9362 11.9544 23.5527 11.2116 24.3434L12.4466 25.652C12.983 25.0803 13.6218 24.6263 14.326 24.3164C15.0303 24.0065 15.786 23.8475 16.5493 23.8474Z" fill="black"/>
<path d="M16.5493 36.152C16.4524 36.152 16.3555 36.1493 16.2599 36.144L16.1725 37.99C17.2275 38.0466 18.282 37.868 19.2669 37.4659C20.2517 37.0638 21.1448 36.4473 21.8877 35.6567L20.6527 34.348C20.116 34.9193 19.477 35.373 18.7727 35.6826C18.0683 35.9923 17.3126 36.1518 16.5493 36.152Z" fill="black"/>
<path d="M19.8224 24.9213L21.2911 23.7747C19.9525 22.6247 18.2771 21.9977 16.5493 22V23.848C17.7628 23.848 18.8901 24.2447 19.8224 24.9213Z" fill="black"/>
<path d="M24.0987 30C24.0987 29.51 24.0569 29.0313 23.9777 28.5667L22.3526 29.8353C22.3758 30.721 22.2172 31.6014 21.8876 32.4166C21.5579 33.2318 21.065 33.9624 20.4424 34.5587L21.6141 35.9313C22.3984 35.1798 23.0246 34.2638 23.4525 33.2423C23.8804 32.2208 24.1005 31.1164 24.0987 30Z" fill="black"/>
<path d="M16.5493 36.152C15.7371 36.1517 14.9341 35.971 14.1928 35.6217C13.4515 35.2725 12.7885 34.7626 12.2471 34.1253L10.9519 35.3667C11.6564 36.1955 12.5191 36.8584 13.4836 37.3122C14.4481 37.766 15.4928 38.0004 16.5493 38V36.152Z" fill="black"/>
<path d="M12.6562 25.44L11.4846 24.0673C10.7002 24.819 10.0739 25.7352 9.64602 26.757C9.21812 27.7787 8.99807 28.8834 9.00001 30H10.7442C10.7442 28.1933 11.4827 26.5667 12.6569 25.4407L12.6562 25.44Z" fill="black"/>
</g>
<defs>
<clipPath id="clip0_1109_918">
<rect width="133" height="16" fill="white" transform="translate(9 22)"/>
</clipPath>
</defs>
</svg>
