<svg width="247" height="103" viewBox="0 0 247 103" fill="none" xmlns="http://www.w3.org/2000/svg">
<g clip-path="url(#clip0_1165_1891)">
<g clip-path="url(#clip1_1165_1891)">
<path d="M68.0372 34.1261C66.0753 30.226 63.2336 26.9675 59.7064 24.6016L51.3296 5.31433L39.6478 5.45085L32.8868 22.0238C31.5251 22.4825 30.1881 23.0178 28.8758 23.6297C27.5635 24.2416 26.294 24.9218 25.0673 25.6701L8.03495 20.1921L0.421447 29.0532L9.81187 47.8678C9.35636 52.1129 10.0386 56.4114 11.7869 60.4442L18.8398 60.3287L18.9122 60.2949C18.478 59.671 18.1066 59.0398 17.807 58.3973C15.9838 54.4875 15.6134 50.5505 16.3716 46.8363L6.08762 26.2237L26.0516 32.6484C27.7388 31.3989 29.5917 30.2925 31.5557 29.3767C33.5196 28.4609 35.5582 27.7526 37.5999 27.2634L45.5109 7.84033L54.6907 28.9678C58.0232 30.7744 60.8011 33.5889 62.6242 37.4986C62.9154 38.1231 63.1559 38.8043 63.3463 39.5198L68.0372 34.1261Z" fill="#4760F3"/>
</g>
<g clip-path="url(#clip2_1165_1891)">
<path d="M33.7449 40.1695V44.2856H42.6366V40.1695H33.7449ZM33.7449 48.2091V52.0701H42.3526V48.2091H33.7449ZM35.165 40.1695H30.5675V60.0519H35.165V40.1695ZM48.3173 55.9599C48.3173 55.6389 48.3927 55.3694 48.5436 55.1511C48.6976 54.9329 48.9255 54.7676 49.2272 54.6553C49.5289 54.5429 49.9365 54.4868 50.45 54.4868C51.1111 54.4868 51.7402 54.5766 52.3371 54.7564C52.9341 54.9361 53.4588 55.196 53.9113 55.5362V53.6347C53.6867 53.3875 53.3465 53.15 52.8907 52.9222C52.435 52.6943 51.891 52.5049 51.2587 52.3541C50.6233 52.2032 49.9076 52.1278 49.1116 52.1278C47.4845 52.1278 46.2264 52.4921 45.3373 53.2206C44.4451 53.9492 43.999 54.9393 43.999 56.191C43.999 57.08 44.2124 57.8374 44.6393 58.4633C45.0661 59.0859 45.6342 59.5545 46.3435 59.869C47.0528 60.1803 47.8247 60.336 48.6591 60.336C49.4936 60.336 50.2702 60.1899 50.9892 59.8979C51.7081 59.6026 52.2954 59.1661 52.7511 58.5884C53.2037 58.0107 53.4299 57.3062 53.4299 56.475L52.9774 54.7708C52.9774 55.3742 52.8442 55.8845 52.5778 56.3017C52.3147 56.7189 51.9745 57.0318 51.5572 57.2405C51.14 57.4491 50.6859 57.5534 50.1948 57.5534C49.8514 57.5534 49.5385 57.4908 49.2561 57.3656C48.9704 57.2437 48.7426 57.0639 48.5725 56.8264C48.4024 56.5921 48.3173 56.3033 48.3173 55.9599ZM44.9667 48.1224L46.4157 50.9917C46.6051 50.8761 46.9084 50.7285 47.3256 50.5488C47.7396 50.3691 48.2258 50.2134 48.7843 50.0818C49.3459 49.9502 49.9188 49.8844 50.5029 49.8844C50.9009 49.8844 51.2571 49.9213 51.5717 49.9952C51.883 50.0722 52.143 50.1957 52.3516 50.3658C52.5602 50.5359 52.7158 50.7397 52.8185 50.9772C52.9244 51.2147 52.9774 51.494 52.9774 51.8149V60.0519H57.0935V50.8473C57.0935 49.939 56.8287 49.1719 56.2992 48.5461C55.7696 47.9235 55.0507 47.4469 54.1424 47.1163C53.2309 46.7825 52.1991 46.6156 51.0469 46.6156C49.8145 46.6156 48.6784 46.7777 47.6385 47.1018C46.5954 47.4228 45.7048 47.763 44.9667 48.1224ZM64.7913 54.9393V46.9863H60.3045V55.3918C60.3045 56.9452 60.6784 58.1632 61.4262 59.0458C62.174 59.9251 63.3615 60.3648 64.9887 60.3648C65.9548 60.3648 66.7603 60.161 67.4054 59.7534C68.0505 59.3458 68.5704 58.7922 68.9652 58.0926V60.0519H73.2546V46.9863H68.9652V54.9393C68.9652 55.4496 68.8705 55.8845 68.6812 56.2439C68.4918 56.6034 68.2318 56.8794 67.9013 57.072C67.5707 57.2613 67.1679 57.356 66.6929 57.356C65.9933 57.356 65.5022 57.1426 65.2198 56.7157C64.9342 56.2889 64.7913 55.6967 64.7913 54.9393ZM77.3466 55.31L75.5558 58.1503C76.1431 58.6029 76.7786 59.0137 77.4622 59.3828C78.1426 59.7518 78.8856 60.0455 79.6911 60.2637C80.4935 60.482 81.36 60.5911 82.2908 60.5911C83.8602 60.5911 85.0766 60.2365 85.9399 59.5272C86.8 58.8179 87.2301 57.762 87.2301 56.3595C87.2301 55.5443 87.0552 54.8911 86.7054 54.4001C86.3555 53.9091 85.8918 53.5015 85.3141 53.1773C84.7364 52.8564 84.1057 52.5723 83.4221 52.3252C82.7802 52.0781 82.2362 51.8743 81.7901 51.7138C81.3472 51.5533 81.007 51.3784 80.7695 51.1891C80.532 50.9997 80.4133 50.7638 80.4133 50.4814C80.4133 50.2343 80.5128 50.0353 80.7117 49.8844C80.9107 49.7336 81.2092 49.6582 81.6072 49.6582C82.1945 49.6582 82.838 49.8235 83.5376 50.154C84.2373 50.4846 84.8631 50.905 85.4152 51.4153L86.9461 48.6328C86.4358 48.254 85.8918 47.9235 85.3141 47.641C84.7364 47.3554 84.1202 47.1275 83.4654 46.9574C82.8139 46.7873 82.1094 46.7023 81.352 46.7023C80.4052 46.7023 79.5676 46.8435 78.839 47.1259C78.1073 47.4116 77.5296 47.8288 77.1059 48.3776C76.6791 48.9264 76.4657 49.5988 76.4657 50.3947C76.4657 51.2292 76.6454 51.9112 77.0048 52.4407C77.3643 52.9703 77.8232 53.3907 78.3817 53.7021C78.9401 54.0166 79.5323 54.2878 80.1581 54.5156C80.8578 54.7211 81.4114 54.9184 81.819 55.1078C82.2266 55.2971 82.5154 55.4913 82.6855 55.6903C82.8556 55.8893 82.9407 56.1316 82.9407 56.4172C82.9407 56.7189 82.8364 56.9644 82.6278 57.1538C82.4192 57.3432 82.0982 57.4378 81.6649 57.4378C81.36 57.4378 81.0006 57.3769 80.5866 57.2549C80.1693 57.1329 79.6911 56.9147 79.152 56.6002C78.6096 56.2889 78.0078 55.8588 77.3466 55.31ZM96.8006 46.9863H88.0533V50.5392H96.8006V46.9863ZM94.4754 42.4417H90.3545V60.0519H94.4754V42.4417ZM111.657 50.1107C111.657 48.8783 111.932 47.8272 112.48 46.9574C113.029 46.0877 113.754 45.4249 114.656 44.9692C115.555 44.5134 116.543 44.2856 117.622 44.2856C118.569 44.2856 119.401 44.4043 120.12 44.6418C120.843 44.8793 121.488 45.2019 122.056 45.6095C122.624 46.0171 123.124 46.4471 123.558 46.8997V41.7341C122.762 41.1082 121.89 40.6156 120.944 40.2561C119.997 39.8967 118.795 39.7169 117.338 39.7169C115.749 39.7169 114.282 39.9625 112.938 40.4535C111.593 40.9445 110.438 41.6538 109.471 42.5814C108.505 43.5121 107.758 44.6113 107.228 45.8791C106.699 47.1468 106.434 48.5573 106.434 50.1107C106.434 51.6641 106.699 53.0746 107.228 54.3423C107.758 55.6101 108.505 56.7093 109.471 57.64C110.438 58.5676 111.593 59.2768 112.938 59.7679C114.282 60.2589 115.749 60.5045 117.338 60.5045C118.795 60.5045 119.997 60.3247 120.944 59.9653C121.89 59.6058 122.762 59.1148 123.558 58.4921V53.3217C123.124 53.7743 122.624 54.1995 122.056 54.5975C121.488 54.9955 120.843 55.318 120.12 55.5651C119.401 55.8123 118.569 55.9358 117.622 55.9358C116.543 55.9358 115.555 55.708 114.656 55.2522C113.754 54.7965 113.029 54.1289 112.48 53.2495C111.932 52.3701 111.657 51.3239 111.657 50.1107ZM126.287 53.5191C126.287 54.8831 126.608 56.0754 127.25 57.096C127.895 58.1198 128.786 58.9158 129.922 59.4839C131.058 60.0519 132.336 60.336 133.754 60.336C135.176 60.336 136.45 60.0519 137.577 59.4839C138.703 58.9158 139.592 58.1198 140.244 57.096C140.898 56.0754 141.226 54.8831 141.226 53.5191C141.226 52.1358 140.898 50.9339 140.244 49.9133C139.592 48.8895 138.703 48.0936 137.577 47.5255C136.45 46.9574 135.176 46.6734 133.754 46.6734C132.336 46.6734 131.058 46.9574 129.922 47.5255C128.786 48.0936 127.895 48.8895 127.25 49.9133C126.608 50.9339 126.287 52.1358 126.287 53.5191ZM130.687 53.5191C130.687 52.8387 130.83 52.2514 131.116 51.7571C131.398 51.2661 131.767 50.8874 132.223 50.621C132.676 50.3578 133.186 50.2262 133.754 50.2262C134.303 50.2262 134.81 50.3578 135.275 50.621C135.741 50.8874 136.11 51.2661 136.383 51.7571C136.659 52.2514 136.797 52.8387 136.797 53.5191C136.797 54.1995 136.659 54.782 136.383 55.2667C136.11 55.7481 135.741 56.122 135.275 56.3884C134.81 56.6515 134.303 56.7831 133.754 56.7831C133.186 56.7831 132.676 56.6515 132.223 56.3884C131.767 56.122 131.398 55.7481 131.116 55.2667C130.83 54.782 130.687 54.1995 130.687 53.5191ZM152.274 52.0989V60.0519H156.732V51.6464C156.732 50.0738 156.363 48.851 155.625 47.978C154.887 47.1083 153.704 46.6734 152.077 46.6734C151.111 46.6734 150.3 46.8724 149.646 47.2703C148.994 47.6683 148.479 48.2268 148.1 48.9457V46.9863H143.782V60.0519H148.1V52.0989C148.1 51.5886 148.195 51.1538 148.384 50.7943C148.574 50.4348 148.838 50.1604 149.179 49.9711C149.519 49.7785 149.917 49.6822 150.373 49.6822C151.053 49.6822 151.541 49.8908 151.836 50.3081C152.128 50.7253 152.274 51.3223 152.274 52.0989ZM160.824 55.31L159.033 58.1503C159.621 58.6029 160.256 59.0137 160.94 59.3828C161.62 59.7518 162.363 60.0455 163.169 60.2637C163.974 60.482 164.841 60.5911 165.768 60.5911C167.338 60.5911 168.554 60.2365 169.417 59.5272C170.277 58.8179 170.708 57.762 170.708 56.3595C170.708 55.5443 170.533 54.8911 170.183 54.4001C169.833 53.9091 169.369 53.5015 168.791 53.1773C168.214 52.8564 167.585 52.5723 166.904 52.3252C166.259 52.0781 165.714 51.8743 165.268 51.7138C164.825 51.5533 164.484 51.3784 164.247 51.1891C164.009 50.9997 163.891 50.7638 163.891 50.4814C163.891 50.2343 163.99 50.0353 164.189 49.8844C164.388 49.7336 164.687 49.6582 165.085 49.6582C165.672 49.6582 166.315 49.8235 167.015 50.154C167.718 50.4846 168.344 50.905 168.893 51.4153L170.423 48.6328C169.913 48.254 169.369 47.9235 168.791 47.641C168.214 47.3554 167.598 47.1275 166.943 46.9574C166.291 46.7873 165.587 46.7023 164.829 46.7023C163.883 46.7023 163.045 46.8435 162.316 47.1259C161.588 47.4116 161.01 47.8288 160.583 48.3776C160.156 48.9264 159.943 49.5988 159.943 50.3947C159.943 51.2292 160.123 51.9112 160.482 52.4407C160.842 52.9703 161.301 53.3907 161.859 53.7021C162.418 54.0166 163.01 54.2878 163.636 54.5156C164.335 54.7211 164.889 54.9184 165.296 55.1078C165.704 55.2971 165.993 55.4913 166.163 55.6903C166.333 55.8893 166.418 56.1316 166.418 56.4172C166.418 56.7189 166.314 56.9644 166.105 57.1538C165.9 57.3432 165.579 57.4378 165.142 57.4378C164.837 57.4378 164.478 57.3769 164.064 57.2549C163.647 57.1329 163.169 56.9147 162.629 56.6002C162.09 56.2889 161.488 55.8588 160.824 55.31ZM177.553 54.9393V46.9863H173.066V55.3918C173.066 56.9452 173.44 58.1632 174.188 59.0458C174.936 59.9251 176.123 60.3648 177.751 60.3648C178.717 60.3648 179.522 60.161 180.167 59.7534C180.812 59.3458 181.332 58.7922 181.727 58.0926V60.0519H186.017V46.9863H181.727V54.9393C181.727 55.4496 181.632 55.8845 181.443 56.2439C181.254 56.6034 180.994 56.8794 180.663 57.072C180.333 57.2613 179.93 57.356 179.455 57.356C178.755 57.356 178.264 57.1426 177.982 56.7157C177.696 56.2889 177.553 55.6967 177.553 54.9393ZM193.714 37.8972H189.396V60.0519H193.714V37.8972ZM204.281 46.9863H195.534V50.5392H204.281V46.9863ZM201.951 42.4417H197.835V60.0519H201.951V42.4417ZM205.846 42.0711C205.846 42.7547 206.092 43.3131 206.583 43.7464C207.074 44.1829 207.661 44.4011 208.345 44.4011C209.044 44.4011 209.635 44.1829 210.116 43.7464C210.601 43.3131 210.843 42.7547 210.843 42.0711C210.843 41.3907 210.601 40.837 210.116 40.4102C209.635 39.9833 209.044 39.7699 208.345 39.7699C207.661 39.7699 207.074 39.9833 206.583 40.4102C206.092 40.837 205.846 41.3907 205.846 42.0711ZM210.415 46.9863H206.27V60.0519H210.415V46.9863ZM222.431 52.0989V60.0519H226.889V51.6464C226.889 50.0738 226.52 48.851 225.781 47.978C225.043 47.1083 223.861 46.6734 222.233 46.6734C221.267 46.6734 220.457 46.8724 219.802 47.2703C219.151 47.6683 218.636 48.2268 218.257 48.9457V46.9863H213.939V60.0519H218.257V52.0989C218.257 51.5886 218.352 51.1538 218.541 50.7943C218.73 50.4348 218.995 50.1604 219.335 49.9711C219.675 49.7785 220.073 49.6822 220.529 49.6822C221.21 49.6822 221.697 49.8908 221.993 50.3081C222.285 50.7253 222.431 51.3223 222.431 52.0989ZM233.937 60.9907H229.787C229.883 62.1461 230.196 63.1635 230.726 64.0429C231.255 64.9222 232.046 65.6091 233.099 66.1033C234.148 66.5944 235.479 66.8399 237.09 66.8399C238.431 66.8399 239.643 66.5992 240.725 66.1178C241.803 65.6331 242.669 64.8709 243.324 63.831C243.976 62.788 244.301 61.4336 244.301 59.7679V46.9863H240.185V59.7679C240.185 60.5638 240.038 61.2314 239.742 61.7706C239.45 62.3098 239.057 62.7174 238.563 62.9934C238.072 63.2662 237.523 63.4026 236.917 63.4026C236.368 63.4026 235.875 63.3127 235.439 63.133C235.005 62.9532 234.66 62.6837 234.404 62.3242C234.147 61.9647 233.991 61.5202 233.937 60.9907ZM229.503 53.3506C229.503 54.8077 229.801 56.0289 230.398 57.0142C230.995 57.9995 231.767 58.7425 232.714 59.2431C233.661 59.7438 234.664 59.9942 235.723 59.9942C236.823 59.9942 237.794 59.7342 238.635 59.2143C239.479 58.6943 240.147 57.9369 240.638 56.942C241.129 55.9471 241.374 54.7499 241.374 53.3506C241.374 51.9288 241.129 50.7253 240.638 49.74C240.147 48.7547 239.479 48.0021 238.635 47.4822C237.794 46.9622 236.823 46.7023 235.723 46.7023C234.664 46.7023 233.661 46.9478 232.714 47.4388C231.767 47.9331 230.995 48.6729 230.398 49.6582C229.801 50.6403 229.503 51.8711 229.503 53.3506ZM234.018 53.3506C234.018 52.667 234.161 52.0893 234.447 51.6175C234.729 51.1425 235.108 50.7831 235.583 50.5392C236.055 50.292 236.575 50.1685 237.143 50.1685C237.502 50.1685 237.863 50.2343 238.226 50.3658C238.585 50.4974 238.911 50.6964 239.203 50.9628C239.499 51.2292 239.736 51.5598 239.916 51.9545C240.096 52.3525 240.185 52.8179 240.185 53.3506C240.185 54.0503 240.033 54.636 239.728 55.1078C239.426 55.5828 239.043 55.939 238.577 56.1765C238.115 56.4108 237.637 56.528 237.143 56.528C236.575 56.528 236.055 56.406 235.583 56.1621C235.108 55.915 234.729 55.5507 234.447 55.0693C234.161 54.5846 234.018 54.0118 234.018 53.3506Z" fill="black"/>
</g>
</g>
<defs>
<clipPath id="clip0_1165_1891">
<rect width="247" height="103" fill="white"/>
</clipPath>
<clipPath id="clip1_1165_1891">
<rect width="62.1026" height="40.9424" fill="white" transform="translate(-4.30078 25.9443) rotate(-25)"/>
</clipPath>
<clipPath id="clip2_1165_1891">
<rect width="213.734" height="28.9427" fill="white" transform="translate(30.5674 37.8979)"/>
</clipPath>
</defs>
</svg>
