<svg width="115" height="60" viewBox="0 0 115 60" fill="none" xmlns="http://www.w3.org/2000/svg">
<g clip-path="url(#clip0_1109_817)">
<path d="M7.40188 24.2291V23.2265H3.48511V19.1448H4.56983V22.3463H6.73921V19.1448H7.82388V22.3463H8.4866V24.2291H7.40188Z" fill="black"/>
<path d="M11.0403 23.3005C10.5589 23.3005 10.1478 23.2264 9.81021 23.0797C9.47265 22.9315 9.21784 22.7289 9.04437 22.4703C8.87091 22.2117 8.7849 21.9168 8.7849 21.5871C8.7849 21.2574 8.8662 20.9565 9.02872 20.6979C9.1913 20.4392 9.42884 20.2366 9.74301 20.0914C10.0572 19.9462 10.4307 19.8721 10.8636 19.8721C11.2732 19.8721 11.631 19.9462 11.9358 20.0929C12.2406 20.2411 12.4751 20.4438 12.6376 20.7024C12.8001 20.961 12.8814 21.2559 12.8814 21.5856V21.6899H9.33195V21.2998H12.2735L11.7795 21.4812V21.3587C11.7795 21.2151 11.742 21.0805 11.6686 20.9565C11.5936 20.8324 11.4873 20.7326 11.3497 20.6585C11.2106 20.5844 11.0512 20.5481 10.8699 20.5481C10.6886 20.5481 10.5229 20.5799 10.3823 20.6449C10.2416 20.7084 10.1306 20.7977 10.0509 20.9096C9.97122 21.023 9.92276 21.1531 9.90559 21.2998V21.6899C9.92904 21.8457 9.99311 21.9803 10.0947 22.0952C10.1978 22.2101 10.3463 22.3009 10.5401 22.3659C10.7355 22.4325 10.9684 22.4657 11.2419 22.4657C11.5154 22.4657 11.7545 22.4325 11.9953 22.3644C12.2359 22.2964 12.4188 22.2223 12.5438 22.1406V22.9799C12.3985 23.0616 12.1922 23.1357 11.9233 23.2007C11.6545 23.2673 11.3591 23.3005 11.0372 23.3005H11.0403Z" fill="black"/>
<path d="M13.5536 23.225V19.9478H14.6383V23.225H13.5536ZM14.3132 21.9425V21.1546H16.6577V21.9425H14.3132ZM16.3388 23.225V19.9478H17.4235V23.225H16.3388Z" fill="black"/>
<path d="M19.2617 23.225V20.7357H17.8582V19.9493H21.7578V20.7357H20.348V23.225H19.2633H19.2617Z" fill="black"/>
<path d="M22.197 24.3334V19.9477H23.2817V20.409H23.3301C23.402 20.3243 23.5052 20.2396 23.638 20.1549C23.7709 20.0702 23.9287 20.0037 24.1147 19.9508C24.2992 19.8978 24.4945 19.8721 24.6993 19.8721C25.0369 19.8721 25.3339 19.9417 25.5919 20.0823C25.8478 20.223 26.0483 20.4211 26.1917 20.6797C26.3341 20.9383 26.4058 21.2408 26.4058 21.5871C26.4058 21.9334 26.3341 22.2359 26.1917 22.4945C26.0499 22.7531 25.8494 22.9527 25.5919 23.0919C25.3339 23.231 25.0369 23.302 24.6993 23.302C24.4945 23.302 24.2992 23.2748 24.1147 23.2204C23.9303 23.1659 23.7709 23.0979 23.638 23.0162C23.5052 22.9346 23.4036 22.8514 23.3301 22.7652H23.2817V24.3334H22.197ZM24.246 22.5202C24.4586 22.5202 24.643 22.4809 24.8009 22.4037C24.9572 22.3266 25.0775 22.2177 25.1588 22.0771C25.2416 21.9364 25.2822 21.7746 25.2822 21.5871C25.2822 21.3996 25.2416 21.2377 25.1588 21.0971C25.076 20.958 24.9572 20.8491 24.8009 20.7704C24.6446 20.6933 24.4586 20.654 24.246 20.654C24.1007 20.654 23.9647 20.6752 23.8365 20.7175C23.7084 20.7599 23.5958 20.8143 23.502 20.8778C23.4083 20.9413 23.3348 21.0048 23.2817 21.0669V22.1043C23.3333 22.1663 23.4067 22.2298 23.502 22.2933C23.5958 22.3569 23.7084 22.4113 23.8365 22.4536C23.9647 22.496 24.1023 22.5172 24.246 22.5172V22.5202Z" fill="black"/>
<path d="M3.3757 29.6931V26.4159H4.46042V27.833H4.44168L6.07497 26.4159H7.44255L5.5498 28.025L7.44255 29.6931H6.07497L4.44791 28.2231H4.46042V29.6931H3.3757Z" fill="black"/>
<path d="M9.69784 29.7686C9.21643 29.7686 8.80538 29.6945 8.46776 29.5478C8.13019 29.3996 7.87544 29.197 7.70506 28.9384C7.53468 28.6798 7.44873 28.3849 7.44873 28.0552C7.44873 27.7255 7.53468 27.4306 7.70506 27.172C7.87544 26.9134 8.13019 26.7107 8.46776 26.5625C8.80538 26.4143 9.21486 26.3417 9.69784 26.3417C10.1808 26.3417 10.584 26.4159 10.9216 26.5625C11.2592 26.7107 11.5124 26.9134 11.6843 27.172C11.8547 27.4306 11.9407 27.7255 11.9407 28.0552C11.9407 28.3849 11.8547 28.6798 11.6843 28.9384C11.514 29.197 11.2592 29.3996 10.9216 29.5478C10.584 29.696 10.1761 29.7686 9.69784 29.7686ZM9.69784 29.0216C9.93071 29.0216 10.1323 28.9807 10.3012 28.8991C10.4699 28.8174 10.5981 28.704 10.6872 28.5573C10.7747 28.4121 10.82 28.2427 10.82 28.0537C10.82 27.8646 10.7763 27.6953 10.6872 27.5501C10.5981 27.4049 10.4699 27.29 10.3012 27.2083C10.1323 27.1266 9.93071 27.0858 9.69784 27.0858C9.46496 27.0858 9.25862 27.1266 9.08981 27.2083C8.92106 27.29 8.79286 27.4034 8.70378 27.5501C8.61469 27.6953 8.57093 27.8646 8.57093 28.0537C8.57093 28.2427 8.61469 28.4121 8.70378 28.5573C8.79129 28.7024 8.92106 28.8174 9.08981 28.8991C9.25862 28.9807 9.46182 29.0216 9.69784 29.0216Z" fill="black"/>
<path d="M12.6079 30.8001V26.4144H13.6927V26.8756H13.7411C13.813 26.791 13.9162 26.7063 14.049 26.6216C14.1819 26.5384 14.3397 26.4703 14.5257 26.4174C14.7101 26.3645 14.9055 26.3388 15.1102 26.3388C15.4478 26.3388 15.7448 26.4083 16.0027 26.549C16.259 26.6897 16.4591 26.8878 16.6029 27.1463C16.7451 27.405 16.817 27.7074 16.817 28.0537C16.817 28.4 16.7451 28.7025 16.6029 28.9611C16.4606 29.2197 16.2606 29.4193 16.0027 29.5585C15.7448 29.6976 15.4478 29.7687 15.1102 29.7687C14.9055 29.7687 14.7101 29.7415 14.5257 29.687C14.3413 29.6326 14.1819 29.5645 14.049 29.4829C13.9162 29.4012 13.8146 29.318 13.7411 29.2318H13.6927V30.8001H12.6079ZM14.657 28.9868C14.8696 28.9868 15.0555 28.9475 15.2118 28.8704C15.3681 28.7933 15.4885 28.6844 15.5698 28.5437C15.6526 28.4031 15.6932 28.2413 15.6932 28.0537C15.6932 27.8662 15.6526 27.7044 15.5698 27.5638C15.4869 27.4246 15.3681 27.3157 15.2118 27.2371C15.0555 27.1599 14.8696 27.1206 14.657 27.1206C14.5116 27.1206 14.3757 27.1418 14.2475 27.1842C14.1194 27.2265 14.0068 27.281 13.913 27.3444C13.8193 27.408 13.7458 27.4715 13.6927 27.5335V28.5709C13.7442 28.633 13.8177 28.6964 13.913 28.76C14.0068 28.8235 14.1194 28.8779 14.2475 28.9203C14.3757 28.9626 14.5132 28.9838 14.657 28.9838V28.9868Z" fill="black"/>
<path d="M17.4953 29.6931V26.4159H21.3464V29.6931H20.2617V27.2039H18.5799V29.6931H17.4953Z" fill="black"/>
<path d="M24.2569 29.7686C23.7756 29.7686 23.3645 29.6945 23.0269 29.5478C22.6893 29.3996 22.4345 29.197 22.2642 28.9384C22.0938 28.6798 22.0079 28.3849 22.0079 28.0552C22.0079 27.7255 22.0938 27.4306 22.2642 27.172C22.4345 26.9134 22.6893 26.7107 23.0269 26.5625C23.3645 26.4143 23.774 26.3417 24.2569 26.3417C24.7399 26.3417 25.1432 26.4159 25.4809 26.5625C25.8185 26.7107 26.0713 26.9134 26.2435 27.172C26.4137 27.4306 26.5 27.7255 26.5 28.0552C26.5 28.3849 26.4137 28.6798 26.2435 28.9384C26.0729 29.197 25.8185 29.3996 25.4809 29.5478C25.1432 29.696 24.7352 29.7686 24.2569 29.7686ZM24.2569 29.0216C24.4898 29.0216 24.6914 28.9807 24.8603 28.8991C25.0291 28.8174 25.1572 28.704 25.2463 28.5573C25.3339 28.4121 25.3793 28.2427 25.3793 28.0537C25.3793 27.8646 25.3354 27.6953 25.2463 27.5501C25.1572 27.4049 25.0291 27.29 24.8603 27.2083C24.6914 27.1266 24.4898 27.0858 24.2569 27.0858C24.0241 27.0858 23.8178 27.1266 23.649 27.2083C23.4802 27.29 23.352 27.4034 23.2629 27.5501C23.1738 27.6953 23.1301 27.8646 23.1301 28.0537C23.1301 28.2427 23.1738 28.4121 23.2629 28.5573C23.3504 28.7024 23.4802 28.8174 23.649 28.8991C23.8178 28.9807 24.0209 29.0216 24.2569 29.0216Z" fill="black"/>
<path d="M27.1669 30.8001V26.4144H28.252V26.8756H28.3001C28.3724 26.791 28.4755 26.7063 28.6079 26.6216C28.7409 26.5384 28.8989 26.4703 29.0848 26.4174C29.269 26.3645 29.4648 26.3388 29.6694 26.3388C30.0071 26.3388 30.3038 26.4083 30.5619 26.549C30.8184 26.6897 31.0183 26.8878 31.1618 27.1463C31.3041 27.405 31.3764 27.7074 31.3764 28.0537C31.3764 28.4 31.3041 28.7025 31.1618 28.9611C31.0199 29.2197 30.82 29.4193 30.5619 29.5585C30.3038 29.6976 30.0071 29.7687 29.6694 29.7687C29.4648 29.7687 29.269 29.7415 29.0848 29.687C28.9005 29.6326 28.7409 29.5645 28.6079 29.4829C28.4755 29.4012 28.3739 29.318 28.3001 29.2318H28.252V30.8001H27.1669ZM29.2161 28.9868C29.4287 28.9868 29.6129 28.9475 29.771 28.8704C29.9275 28.7933 30.0474 28.6844 30.129 28.5437C30.2117 28.4031 30.2525 28.2413 30.2525 28.0537C30.2525 27.8662 30.2117 27.7044 30.129 27.5638C30.0463 27.4246 29.9275 27.3157 29.771 27.2371C29.6145 27.1599 29.4287 27.1206 29.2161 27.1206C29.0706 27.1206 28.9351 27.1418 28.8068 27.1842C28.6786 27.2265 28.566 27.281 28.4723 27.3444C28.3781 27.408 28.3048 27.4715 28.252 27.5335V28.5709C28.3033 28.633 28.3771 28.6964 28.4723 28.76C28.566 28.8235 28.6786 28.8779 28.8068 28.9203C28.9351 28.9626 29.0722 28.9838 29.2161 28.9838V28.9868Z" fill="black"/>
<path d="M33.0859 29.7687C32.8095 29.7687 32.5766 29.7309 32.3903 29.6553C32.2029 29.5796 32.0636 29.4738 31.9715 29.3377C31.8794 29.2015 31.8323 29.0458 31.8323 28.8719C31.8323 28.5694 31.9668 28.332 32.2359 28.1611C32.5044 27.9902 32.9467 27.8949 33.5612 27.8752H33.6392C33.9334 27.8677 34.1553 27.8495 34.305 27.8223C34.4552 27.7951 34.5568 27.7588 34.607 27.715C34.6568 27.6711 34.6819 27.6106 34.6819 27.5365C34.6819 27.4699 34.6552 27.411 34.6007 27.355C34.5458 27.3006 34.4489 27.2567 34.3081 27.2235C34.1673 27.1902 33.9784 27.1735 33.7423 27.1735C33.4094 27.1735 33.0891 27.2114 32.7844 27.287C32.4798 27.3626 32.2421 27.4473 32.0731 27.5411V26.6896C32.2296 26.6004 32.4704 26.5202 32.7938 26.4476C33.1173 26.3766 33.4659 26.3403 33.8391 26.3403C34.2893 26.3403 34.6583 26.3917 34.9457 26.4945C35.2336 26.5974 35.4414 26.7395 35.5728 26.9195C35.7026 27.1009 35.768 27.3112 35.768 27.5516V29.6915H34.6835V29.1895H34.6709C34.5866 29.2787 34.4678 29.3679 34.3129 29.4571C34.1584 29.5464 33.9752 29.6205 33.7643 29.6779C33.5533 29.7369 33.3267 29.7656 33.0859 29.7656V29.7687ZM33.58 29.0579C33.7486 29.0579 33.9067 29.0382 34.0538 28.9989C34.2003 28.9596 34.327 28.9112 34.4332 28.8507C34.5395 28.7902 34.6222 28.7313 34.6835 28.6723V28.0492C34.6473 28.0915 34.5568 28.1323 34.4128 28.1686C34.2678 28.2049 34.0831 28.2276 33.858 28.2352H33.7973C33.4958 28.2473 33.2796 28.2911 33.1503 28.3698C33.0189 28.4469 32.9545 28.5482 32.9545 28.6723C32.9545 28.7493 32.975 28.8174 33.0173 28.8734C33.0592 28.9294 33.1267 28.9747 33.2189 29.008C33.311 29.0413 33.4314 29.0579 33.58 29.0579Z" fill="black"/>
<path d="M37.4608 29.6931V27.2039H36.0575V26.4159H39.9571V27.2039H38.5469V29.6931H37.4624H37.4608Z" fill="black"/>
<path d="M40.3962 29.6931V26.4159H41.4808V29.1502H41.5106L42.9454 26.4159H44.277V29.6931H43.1924V26.9589H43.1626L41.7216 29.6931H40.3962Z" fill="black"/>
<path d="M45.0548 29.6931V26.4159H47.3574C47.6903 26.4159 47.9651 26.4553 48.1824 26.5324C48.3996 26.6095 48.5592 26.7154 48.6624 26.85C48.7655 26.9846 48.8152 27.1343 48.8152 27.3022C48.8152 27.4458 48.778 27.5759 48.7042 27.6893C48.6294 27.8042 48.5263 27.898 48.3902 27.9691C48.2557 28.0417 48.1028 28.081 47.929 28.0885V28.1354C48.2106 28.1551 48.4279 28.2292 48.5828 28.3592C48.7372 28.4893 48.8136 28.6556 48.8136 28.8583C48.8136 29.0171 48.7671 29.1593 48.6718 29.2833C48.5781 29.4073 48.4263 29.5071 48.2201 29.5812C48.0138 29.6553 47.7526 29.6916 47.4401 29.6916H45.0533L45.0548 29.6931ZM47.1931 28.9929C47.3773 28.9929 47.5134 28.9642 47.5993 28.9052C47.6856 28.8462 47.7291 28.7631 47.7291 28.6542C47.7291 28.5453 47.6872 28.4606 47.6024 28.4001C47.5181 28.3396 47.382 28.3093 47.1931 28.3093H45.8363V27.9192H47.1088C47.3213 27.9192 47.4773 27.8829 47.5794 27.8118C47.6809 27.7407 47.7291 27.6424 47.7291 27.5169C47.7291 27.3914 47.6793 27.2886 47.5794 27.216C47.4789 27.1434 47.3229 27.1086 47.1088 27.1086H46.0834V28.9914H47.1915L47.1931 28.9929Z" fill="black"/>
<path d="M49.5014 29.6931V26.4159H50.5865V29.6931H49.5014ZM50.2615 28.4107V27.6228H52.6054V28.4107H50.2615ZM52.2851 29.6931V26.4159H53.3702V29.6931H52.2851Z" fill="black"/>
<path d="M54.148 29.6931V26.4159H55.2331V28.019L55.2142 28.0417V29.0096H56.1302C56.2658 29.0096 56.3799 28.9914 56.4705 28.9566C56.5616 28.9218 56.6286 28.8704 56.6725 28.8054C56.716 28.7388 56.738 28.6617 56.738 28.5725C56.738 28.4364 56.6882 28.329 56.5877 28.2519C56.4878 28.1747 56.3349 28.1354 56.1302 28.1354H54.9311V27.4534H56.3349C56.8364 27.4534 57.2164 27.5547 57.4739 27.7589C57.7304 27.963 57.8602 28.2337 57.8602 28.5725C57.8602 28.7948 57.8037 28.9899 57.6911 29.1593C57.5791 29.3286 57.4085 29.4602 57.1818 29.5524C56.9552 29.6462 56.6725 29.6931 56.3349 29.6931H54.1464H54.148ZM58.2339 29.6931V26.4159H59.3185V29.6931H58.2339Z" fill="black"/>
<path d="M59.675 29.6931L61.2427 27.9207L61.1641 28.1369V27.9207L61.2427 28.1369L59.7127 26.4159H60.9239L61.7316 27.3612H61.7802L62.5947 26.4159H63.7997L62.2634 28.1309L62.3414 27.9146V28.1309L62.2696 27.9146L63.8368 29.6931H62.6256L61.7818 28.6844H61.7331L60.8768 29.6931H59.6781H59.675Z" fill="black"/>
<path d="M65.839 29.6931V26.4159H66.9241V29.1502H66.9534L68.3881 26.4159H69.7197V29.6931H68.6352V26.9589H68.6053L67.1643 29.6931H65.839Z" fill="black"/>
<path d="M70.4986 29.6931V26.4159H71.5832V29.6931H70.4986ZM71.2581 28.4107V27.6228H73.6026V28.4107H71.2581ZM73.2822 29.6931V26.4159H74.3668V29.6931H73.2822Z" fill="black"/>
<path d="M75.1452 29.6931V26.4159H76.2297V29.6931H75.1452ZM75.9031 28.4107V27.6228H78.2476V28.4107H75.9031ZM77.9288 29.6931V26.4159H79.0134V29.6931H77.9288Z" fill="black"/>
<path d="M81.9237 29.7686C81.4421 29.7686 81.0312 29.6945 80.6936 29.5478C80.356 29.3996 80.1011 29.197 79.9309 28.9384C79.7603 28.6798 79.6745 28.3849 79.6745 28.0552C79.6745 27.7255 79.7603 27.4306 79.9309 27.172C80.1011 26.9134 80.356 26.7107 80.6936 26.5625C81.0312 26.4143 81.4405 26.3417 81.9237 26.3417C82.4063 26.3417 82.8099 26.4159 83.1475 26.5625C83.4851 26.7107 83.7379 26.9134 83.9101 27.172C84.0802 27.4306 84.1666 27.7255 84.1666 28.0552C84.1666 28.3849 84.0802 28.6798 83.9101 28.9384C83.7395 29.197 83.4851 29.3996 83.1475 29.5478C82.8099 29.696 82.4016 29.7686 81.9237 29.7686ZM81.9237 29.0216C82.1566 29.0216 82.3581 28.9807 82.5267 28.8991C82.6957 28.8174 82.824 28.704 82.913 28.5573C83.002 28.4121 83.0459 28.2427 83.0459 28.0537C83.0459 27.8646 83.002 27.6953 82.913 27.5501C82.824 27.4049 82.6957 27.29 82.5267 27.2083C82.3581 27.1266 82.1566 27.0858 81.9237 27.0858C81.6907 27.0858 81.4845 27.1266 81.3154 27.2083C81.1469 27.29 81.0187 27.4034 80.9297 27.5501C80.8402 27.6953 80.7967 27.8646 80.7967 28.0537C80.7967 28.2427 80.8402 28.4121 80.9297 28.5573C81.0171 28.7024 81.1469 28.8174 81.3154 28.8991C81.4845 28.9807 81.6876 29.0216 81.9237 29.0216Z" fill="black"/>
<path d="M84.835 29.6931V26.4159H87.1376C87.4705 26.4159 87.7454 26.4553 87.9626 26.5324C88.1798 26.6095 88.3395 26.7154 88.4426 26.85C88.5457 26.9846 88.5959 27.1343 88.5959 27.3022C88.5959 27.4458 88.5583 27.5759 88.485 27.6893C88.4096 27.8042 88.3065 27.898 88.1704 27.9691C88.0364 28.0417 87.883 28.081 87.7092 28.0885V28.1354C87.9908 28.1551 88.2081 28.2292 88.363 28.3592C88.5174 28.4893 88.5944 28.6556 88.5944 28.8583C88.5944 29.0171 88.5473 29.1593 88.452 29.2833C88.3583 29.4073 88.2065 29.5071 88.0003 29.5812C87.794 29.6553 87.5328 29.6916 87.2203 29.6916H84.8335L84.835 29.6931ZM86.9733 28.9929C87.1575 28.9929 87.2936 28.9642 87.3795 28.9052C87.4658 28.8462 87.5093 28.7631 87.5093 28.6542C87.5093 28.5453 87.4674 28.4606 87.3826 28.4001C87.2983 28.3396 87.1622 28.3093 86.9733 28.3093H85.6165V27.9192H86.889C87.1015 27.9192 87.258 27.8829 87.3596 27.8118C87.4596 27.7392 87.5093 27.6424 87.5093 27.5169C87.5093 27.3914 87.4596 27.2886 87.3596 27.216C87.2596 27.1434 87.1031 27.1086 86.889 27.1086H85.8636V28.9914H86.9717L86.9733 28.9929Z" fill="black"/>
<path d="M90.3133 29.7687C90.037 29.7687 89.804 29.7309 89.6182 29.6553C89.4303 29.5796 89.2911 29.4738 89.1989 29.3377C89.1068 29.2015 89.0602 29.0458 89.0602 28.8719C89.0602 28.5694 89.1942 28.332 89.4633 28.1611C89.7323 27.9902 90.1746 27.8949 90.7886 27.8752H90.8666C91.1608 27.8677 91.3827 27.8495 91.5324 27.8223C91.6826 27.7951 91.7842 27.7588 91.8344 27.715C91.8842 27.6711 91.9093 27.6106 91.9093 27.5365C91.9093 27.4699 91.8826 27.411 91.8282 27.355C91.7732 27.3006 91.6764 27.2567 91.5356 27.2235C91.3953 27.1902 91.2058 27.1735 90.9697 27.1735C90.6368 27.1735 90.3165 27.2114 90.0118 27.287C89.7072 27.3626 89.4696 27.4473 89.3005 27.5411V26.6896C89.457 26.6004 89.6978 26.5202 90.0213 26.4476C90.3447 26.3766 90.6934 26.3403 91.0671 26.3403C91.5167 26.3403 91.8857 26.3917 92.1736 26.4945C92.461 26.5974 92.6688 26.7395 92.8002 26.9195C92.93 27.1009 92.9954 27.3112 92.9954 27.5516V29.6915H91.9109V29.1895H91.8983C91.814 29.2787 91.6952 29.3679 91.5403 29.4571C91.3859 29.5464 91.2027 29.6205 90.9917 29.6779C90.7808 29.7369 90.5541 29.7656 90.3133 29.7656V29.7687ZM90.8075 29.0579C90.976 29.0579 91.1341 29.0382 91.2812 28.9989C91.4277 28.9596 91.5544 28.9112 91.6607 28.8507C91.7669 28.7902 91.8496 28.7313 91.9109 28.6723V28.0492C91.8747 28.0915 91.7842 28.1323 91.6403 28.1686C91.4953 28.2049 91.3105 28.2276 91.0854 28.2352H91.0247C90.7232 28.2473 90.5075 28.2911 90.3761 28.3698C90.2448 28.4469 90.1804 28.5482 90.1804 28.6723C90.1804 28.7493 90.2008 28.8174 90.2432 28.8734C90.2856 28.9294 90.3526 28.9747 90.4447 29.008C90.5368 29.0413 90.6572 29.0579 90.8059 29.0579H90.8075Z" fill="black"/>
<path d="M96.8997 30.5204V29.6916H93.7476V26.4145H94.8322V28.9037H96.3873V26.4145H97.4719V28.9037H97.9848V30.5188H96.8997V30.5204Z" fill="black"/>
<path d="M98.4617 29.6931V26.4159H99.5463V29.1502H99.5756L101.011 26.4159H102.342V29.6931H101.257V26.9589H101.228L99.787 29.6931H98.4617Z" fill="black"/>
<path d="M103.119 29.693V26.4159H104.203V29.1501H104.233L105.668 26.4159H106.999V29.693H105.915V26.9588H105.885L104.444 29.693H103.119ZM105.048 26.0197C104.807 26.0197 104.602 25.9864 104.433 25.9183C104.265 25.8502 104.138 25.752 104.054 25.6204C103.969 25.4903 103.927 25.3361 103.927 25.1561H104.631C104.631 25.2695 104.666 25.3542 104.735 25.4132C104.804 25.4722 104.907 25.5009 105.048 25.5009C105.188 25.5009 105.297 25.4722 105.363 25.4132C105.429 25.3542 105.463 25.2695 105.463 25.1561H106.174C106.174 25.4283 106.077 25.6401 105.885 25.7913C105.693 25.9425 105.413 26.0181 105.048 26.0181V26.0197Z" fill="black"/>
<path d="M3.3757 36.1598V32.8826H4.46042V35.6168H4.4901L5.9249 32.8826H7.25652V36.1598H6.17185V33.4255H6.14217L4.7011 36.1598H3.3757Z" fill="black"/>
<path d="M9.80571 36.1598V32.8826H13.6569V36.1598H12.5722V33.6705H10.8904V36.1598H9.80571Z" fill="black"/>
<path d="M14.4338 37.2682V32.8825H15.5186V33.3437H15.567C15.6389 33.2591 15.7421 33.1744 15.8749 33.0897C16.0078 33.0065 16.1656 32.9384 16.3516 32.8855C16.536 32.8326 16.7314 32.8069 16.9361 32.8069C17.2738 32.8069 17.5707 32.8765 17.8286 33.0171C18.0849 33.1578 18.285 33.3559 18.4288 33.6145C18.571 33.8731 18.6429 34.1755 18.6429 34.5218C18.6429 34.8682 18.571 35.1706 18.4288 35.4292C18.2866 35.6879 18.0865 35.8875 17.8286 36.0266C17.5707 36.1657 17.2738 36.2368 16.9361 36.2368C16.7314 36.2368 16.536 36.2096 16.3516 36.1552C16.1672 36.1007 16.0078 36.0326 15.8749 35.951C15.7421 35.8693 15.6405 35.7862 15.567 35.7H15.5186V37.2682H14.4338ZM16.4829 35.4549C16.6955 35.4549 16.8799 35.4156 17.0377 35.3385C17.194 35.2614 17.3144 35.1525 17.3957 35.0118C17.4785 34.8712 17.5191 34.7094 17.5191 34.5218C17.5191 34.3343 17.4785 34.1725 17.3957 34.0319C17.3128 33.8927 17.194 33.7839 17.0377 33.7052C16.8814 33.6281 16.6955 33.5888 16.4829 33.5888C16.3375 33.5888 16.2015 33.61 16.0734 33.6523C15.9452 33.6946 15.8327 33.7491 15.7389 33.8126C15.6451 33.8761 15.5717 33.9396 15.5186 34.0016V35.039C15.5701 35.1011 15.6436 35.1646 15.7389 35.2281C15.8327 35.2916 15.9452 35.346 16.0734 35.3884C16.2015 35.4308 16.3391 35.4519 16.4829 35.4519V35.4549Z" fill="black"/>
<path d="M21.3949 36.2353C20.9135 36.2353 20.5025 36.1612 20.1649 36.0145C19.8272 35.8663 19.5725 35.6636 19.4022 35.405C19.2318 35.1464 19.1458 34.8516 19.1458 34.5219C19.1458 34.1922 19.2318 33.8973 19.4022 33.6387C19.5725 33.3801 19.8272 33.1774 20.1649 33.0292C20.5025 32.881 20.912 32.8084 21.3949 32.8084C21.8779 32.8084 22.2811 32.8825 22.6187 33.0292C22.9563 33.1774 23.2095 33.3801 23.3814 33.6387C23.5518 33.8973 23.6378 34.1922 23.6378 34.5219C23.6378 34.8516 23.5518 35.1464 23.3814 35.405C23.2111 35.6636 22.9563 35.8663 22.6187 36.0145C22.2811 36.1627 21.8732 36.2353 21.3949 36.2353ZM21.3949 35.4897C21.6278 35.4897 21.8294 35.4489 21.9982 35.3672C22.167 35.2855 22.2952 35.1721 22.3843 35.0254C22.4718 34.8803 22.5171 34.7109 22.5171 34.5219C22.5171 34.3328 22.4734 34.1634 22.3843 34.0183C22.2952 33.8731 22.167 33.7581 21.9982 33.6765C21.8294 33.5948 21.6278 33.5539 21.3949 33.5539C21.162 33.5539 20.9557 33.5948 20.7869 33.6765C20.6181 33.7581 20.49 33.8716 20.4009 34.0183C20.3118 34.1634 20.268 34.3328 20.268 34.5219C20.268 34.7109 20.3118 34.8803 20.4009 35.0254C20.4884 35.1706 20.6181 35.2855 20.7869 35.3672C20.9557 35.4489 21.1589 35.4897 21.3949 35.4897Z" fill="black"/>
<path d="M23.799 36.9885V35.39H24.2148C24.2945 35.2464 24.371 35.0452 24.443 34.7866C24.5149 34.528 24.5508 34.2331 24.5508 33.9034V32.8826H27.8348V35.39H28.3472V36.9885H27.2627V36.1598H24.8821V36.9885H23.7975H23.799ZM25.2932 35.39H26.7701V33.6524H25.6201V33.9382C25.6201 34.2573 25.5856 34.5401 25.5165 34.7896C25.4479 35.0391 25.3746 35.2251 25.2932 35.3492V35.39Z" fill="black"/>
<path d="M29.1753 37.2683L29.9165 35.7756L28.2284 32.8841H29.4035L30.4227 34.6913H30.4713L31.345 32.8841H32.4782L30.3023 37.2698H29.1753V37.2683Z" fill="black"/>
<path d="M32.8938 36.1598V32.8826H33.9784V34.2996H33.9595L35.5932 32.8826H36.9604L35.0676 34.4917L36.9604 36.1598H35.5932L33.9658 34.6898H33.9784V36.1598H32.8938Z" fill="black"/>
<path d="M38.3831 36.1598V33.6705H36.9792V32.8841H40.8788V33.6705H39.4692V36.1598H38.3847H38.3831Z" fill="black"/>
<path d="M43.2825 36.2353C42.8014 36.2353 42.39 36.1612 42.0524 36.0145C41.7148 35.8663 41.4604 35.6636 41.2898 35.405C41.1196 35.1464 41.0338 34.8516 41.0338 34.5219C41.0338 34.1922 41.1196 33.8973 41.2898 33.6387C41.4604 33.3801 41.7148 33.1774 42.0524 33.0292C42.39 32.881 42.7999 32.8084 43.2825 32.8084C43.7656 32.8084 44.1687 32.8825 44.5063 33.0292C44.8439 33.1774 45.0972 33.3801 45.2694 33.6387C45.4396 33.8973 45.5254 34.1922 45.5254 34.5219C45.5254 34.8516 45.4396 35.1464 45.2694 35.405C45.0988 35.6636 44.8439 35.8663 44.5063 36.0145C44.1687 36.1627 43.7609 36.2353 43.2825 36.2353ZM43.2825 35.4897C43.5154 35.4897 43.7169 35.4489 43.886 35.3672C44.0545 35.2855 44.1828 35.1721 44.2718 35.0254C44.3597 34.8803 44.4047 34.7109 44.4047 34.5219C44.4047 34.3328 44.3613 34.1634 44.2718 34.0183C44.1828 33.8731 44.0545 33.7581 43.886 33.6765C43.7169 33.5948 43.5154 33.5539 43.2825 33.5539C43.0495 33.5539 42.8433 33.5948 42.6748 33.6765C42.5057 33.7581 42.378 33.8716 42.2885 34.0183C42.1995 34.1634 42.156 34.3328 42.156 34.5219C42.156 34.7109 42.1995 34.8803 42.2885 35.0254C42.3764 35.1706 42.5057 35.2855 42.6748 35.3672C42.8433 35.4489 43.0469 35.4897 43.2825 35.4897Z" fill="black"/>
<path d="M46.1928 36.1598V32.8826H48.4949C48.8278 32.8826 49.1031 32.9219 49.3203 32.999C49.5376 33.0762 49.6972 33.1821 49.8003 33.3166C49.9034 33.4512 49.9532 33.601 49.9532 33.7688C49.9532 33.9125 49.916 34.0426 49.8422 34.1559C49.7673 34.2709 49.6642 34.3647 49.5281 34.4357C49.3936 34.5083 49.2408 34.5477 49.067 34.5552V34.6021C49.3486 34.6217 49.5658 34.6959 49.7202 34.8259C49.8752 34.956 49.9516 35.1223 49.9516 35.325C49.9516 35.4838 49.905 35.6259 49.8097 35.7499C49.7155 35.8739 49.5643 35.9737 49.358 36.0479C49.1518 36.1219 48.8906 36.1582 48.5781 36.1582H46.1912L46.1928 36.1598ZM48.3326 35.4611C48.5169 35.4611 48.653 35.4323 48.7388 35.3734C48.8246 35.3144 48.8686 35.2312 48.8686 35.1223C48.8686 35.0134 48.8262 34.9287 48.7419 34.8682C48.6577 34.8078 48.5216 34.7775 48.3326 34.7775H46.9759V34.3873H48.2483C48.4608 34.3873 48.6168 34.351 48.7184 34.28C48.8189 34.2074 48.8686 34.1106 48.8686 33.985C48.8686 33.8595 48.8189 33.7567 48.7184 33.6841C48.6184 33.6115 48.4624 33.5767 48.2483 33.5767H47.2229V35.4596H48.331L48.3326 35.4611Z" fill="black"/>
<path d="M52.7138 36.2353C52.2322 36.2353 51.8213 36.1612 51.4837 36.0145C51.1461 35.8663 50.8912 35.6636 50.721 35.405C50.5504 35.1464 50.4646 34.8516 50.4646 34.5219C50.4646 34.1922 50.5504 33.8973 50.721 33.6387C50.8912 33.3801 51.1461 33.1774 51.4837 33.0292C51.8213 32.881 52.2306 32.8084 52.7138 32.8084C53.1969 32.8084 53.6 32.8825 53.9376 33.0292C54.2752 33.1774 54.5285 33.3801 54.7002 33.6387C54.8709 33.8973 54.9567 34.1922 54.9567 34.5219C54.9567 34.8516 54.8709 35.1464 54.7002 35.405C54.5301 35.6636 54.2752 35.8663 53.9376 36.0145C53.6 36.1627 53.1922 36.2353 52.7138 36.2353ZM52.7138 35.4897C52.9467 35.4897 53.1482 35.4489 53.3173 35.3672C53.4858 35.2855 53.6141 35.1721 53.7031 35.0254C53.7905 34.8803 53.836 34.7109 53.836 34.5219C53.836 34.3328 53.7921 34.1634 53.7031 34.0183C53.6141 33.8731 53.4858 33.7581 53.3173 33.6765C53.1482 33.5948 52.9467 33.5539 52.7138 33.5539C52.4808 33.5539 52.2746 33.5948 52.1055 33.6765C51.937 33.7581 51.8088 33.8716 51.7198 34.0183C51.6308 34.1634 51.5868 34.3328 51.5868 34.5219C51.5868 34.7109 51.6308 34.8803 51.7198 35.0254C51.8072 35.1706 51.937 35.2855 52.1055 35.3672C52.2746 35.4489 52.4777 35.4897 52.7138 35.4897Z" fill="black"/>
<path d="M55.6257 36.1598V32.8826H58.7652V33.669H56.7102V36.1582H55.6257V36.1598Z" fill="black"/>
<path d="M61.1819 36.2353C60.7004 36.2353 60.2895 36.1612 59.9519 36.0145C59.6143 35.8663 59.3593 35.6636 59.1892 35.405C59.0186 35.1464 58.9327 34.8516 58.9327 34.5219C58.9327 34.1922 59.0186 33.8973 59.1892 33.6387C59.3593 33.3801 59.6143 33.1774 59.9519 33.0292C60.2895 32.881 60.6988 32.8084 61.1819 32.8084C61.6646 32.8084 62.0681 32.8825 62.4057 33.0292C62.7434 33.1774 62.9962 33.3801 63.1684 33.6387C63.3385 33.8973 63.4249 34.1922 63.4249 34.5219C63.4249 34.8516 63.3385 35.1464 63.1684 35.405C62.9978 35.6636 62.7434 35.8663 62.4057 36.0145C62.0681 36.1627 61.6598 36.2353 61.1819 36.2353ZM61.1819 35.4897C61.4149 35.4897 61.6164 35.4489 61.785 35.3672C61.954 35.2855 62.0823 35.1721 62.1712 35.0254C62.2587 34.8803 62.3042 34.7109 62.3042 34.5219C62.3042 34.3328 62.2602 34.1634 62.1712 34.0183C62.0823 33.8731 61.954 33.7581 61.785 33.6765C61.6164 33.5948 61.4149 33.5539 61.1819 33.5539C60.949 33.5539 60.7428 33.5948 60.5737 33.6765C60.4052 33.7581 60.2769 33.8716 60.1879 34.0183C60.0984 34.1634 60.055 34.3328 60.055 34.5219C60.055 34.7109 60.0984 34.8803 60.1879 35.0254C60.2754 35.1706 60.4052 35.2855 60.5737 35.3672C60.7428 35.4489 60.9459 35.4897 61.1819 35.4897Z" fill="black"/>
<path d="M65.7427 37.2682V32.8825H66.8272V33.3437H66.8754C66.9476 33.2591 67.0507 33.1744 67.1837 33.0897C67.3166 33.0065 67.4742 32.9384 67.66 32.8855C67.8448 32.8326 68.04 32.8069 68.2447 32.8069C68.5823 32.8069 68.8791 32.8765 69.1371 33.0171C69.3936 33.1578 69.5936 33.3559 69.7375 33.6145C69.8794 33.8731 69.9516 34.1755 69.9516 34.5218C69.9516 34.8682 69.8794 35.1706 69.7375 35.4292C69.5952 35.6879 69.3952 35.8875 69.1371 36.0266C68.8791 36.1657 68.5823 36.2368 68.2447 36.2368C68.04 36.2368 67.8448 36.2096 67.66 36.1552C67.4758 36.1007 67.3166 36.0326 67.1837 35.951C67.0507 35.8693 66.9492 35.7862 66.8754 35.7H66.8272V37.2682H65.7427ZM67.7914 35.4549C68.0039 35.4549 68.1887 35.4156 68.3462 35.3385C68.5027 35.2614 68.6231 35.1525 68.7043 35.0118C68.787 34.8712 68.8278 34.7094 68.8278 34.5218C68.8278 34.3343 68.787 34.1725 68.7043 34.0319C68.6216 33.8927 68.5027 33.7839 68.3462 33.7052C68.1903 33.6281 68.0055 33.5888 67.7914 33.5888C67.6464 33.5888 67.5103 33.61 67.3821 33.6523C67.2538 33.6946 67.1413 33.7491 67.0476 33.8126C66.9539 33.8761 66.8801 33.9396 66.8272 34.0016V35.039C66.8785 35.1011 66.9523 35.1646 67.0476 35.2281C67.1413 35.2916 67.2538 35.346 67.3821 35.3884C67.5103 35.4308 67.648 35.4519 67.7914 35.4519V35.4549Z" fill="black"/>
<path d="M71.6617 36.2353C71.3848 36.2353 71.1519 36.1975 70.966 36.1219C70.7781 36.0463 70.6394 35.9404 70.5473 35.8043C70.4546 35.6682 70.4081 35.5124 70.4081 35.3385C70.4081 35.036 70.5426 34.7986 70.8111 34.6277C71.0802 34.4568 71.5225 34.3616 72.1364 34.3419H72.215C72.5086 34.3343 72.7305 34.3162 72.8808 34.289C73.0305 34.2617 73.132 34.2254 73.1823 34.1816C73.232 34.1362 73.2571 34.0772 73.2571 34.0031C73.2571 33.9366 73.2304 33.8776 73.176 33.8217C73.121 33.7672 73.0242 33.7233 72.8839 33.6901C72.7431 33.6568 72.5536 33.6402 72.3181 33.6402C71.9852 33.6402 71.6643 33.678 71.3597 33.7536C71.055 33.8292 70.8174 33.9139 70.6488 34.0077V33.1562C70.8048 33.067 71.0456 32.9869 71.3691 32.9143C71.6926 32.8432 72.0412 32.8069 72.4149 32.8069C72.8651 32.8069 73.2336 32.8583 73.5215 32.9611C73.8088 33.064 74.0166 33.2061 74.148 33.3861C74.2794 33.5676 74.3433 33.7778 74.3433 34.0183V36.1582H73.2587V35.6561H73.2461C73.1619 35.7453 73.043 35.8345 72.8881 35.9238C72.7337 36.013 72.551 36.0871 72.3395 36.1446C72.1286 36.2035 71.902 36.2323 71.6617 36.2323V36.2353ZM72.1553 35.5245C72.3244 35.5245 72.4819 35.5048 72.629 35.4655C72.7756 35.4262 72.9022 35.3778 73.0085 35.3173C73.1148 35.2568 73.198 35.1978 73.2587 35.1389V34.5158C73.2226 34.5581 73.132 34.599 72.9886 34.6353C72.8431 34.6716 72.6588 34.6943 72.4338 34.7018H72.3725C72.071 34.7139 71.8554 34.7578 71.724 34.8364C71.5926 34.9135 71.5287 35.0149 71.5287 35.1389C71.5287 35.216 71.5491 35.2841 71.591 35.34C71.6334 35.396 71.7004 35.4413 71.7926 35.4746C71.8847 35.5079 72.0051 35.5245 72.1537 35.5245H72.1553Z" fill="black"/>
<path d="M76.7301 36.2353C76.3721 36.2353 76.0392 36.2021 75.7298 36.1355C75.4205 36.069 75.1876 35.9949 75.0311 35.9147V35.1676C75.1766 35.2493 75.3781 35.3234 75.6377 35.3884C75.8968 35.455 76.1596 35.4882 76.4239 35.4882C76.7537 35.4882 76.9882 35.455 77.1253 35.3869C77.2646 35.3189 77.3337 35.2251 77.3337 35.1041C77.3337 35.03 77.3038 34.9665 77.2457 34.9121C77.1881 34.8576 77.0897 34.8152 76.9505 34.7835C76.8113 34.7518 76.6254 34.7366 76.3925 34.7366H75.7V34.3404H76.3501C76.5878 34.3404 76.7772 34.3223 76.9191 34.2874C77.0615 34.2527 77.1614 34.2073 77.218 34.1529C77.274 34.0985 77.3023 34.0349 77.3023 33.9608C77.3023 33.8867 77.2724 33.8187 77.2117 33.7566C77.1505 33.6946 77.0536 33.6447 76.9191 33.6084C76.7846 33.5721 76.6129 33.5525 76.4035 33.5525C76.1219 33.5525 75.8487 33.5857 75.5843 33.6523C75.3189 33.7189 75.1049 33.7945 74.9389 33.8791V33.1094C75.1232 33.0323 75.3671 32.9612 75.6686 32.8991C75.9706 32.8372 76.2941 32.8054 76.6396 32.8054C77.0489 32.8054 77.3834 32.8478 77.643 32.934C77.9021 33.0202 78.0916 33.1336 78.2088 33.2742C78.3277 33.4164 78.3868 33.5751 78.3868 33.7491C78.3868 33.8852 78.346 34.0092 78.2633 34.1196C78.1806 34.23 78.0649 34.3207 77.9162 34.3903C77.7681 34.4599 77.599 34.5007 77.4101 34.5128V34.5597C77.7273 34.5794 77.9743 34.6565 78.1507 34.7926C78.3277 34.9287 78.4167 35.1011 78.4167 35.3113C78.4167 35.4867 78.3585 35.6425 78.2444 35.7801C78.1303 35.9177 77.9477 36.0281 77.6959 36.1098C77.4446 36.1915 77.1222 36.2323 76.7286 36.2323L76.7301 36.2353Z" fill="black"/>
<path d="M79.0788 36.1598V32.8826H81.3814C81.7143 32.8826 81.9891 32.9219 82.2063 32.999C82.4236 33.0762 82.5832 33.1821 82.6863 33.3166C82.7894 33.4512 82.8392 33.601 82.8392 33.7688C82.8392 33.9125 82.802 34.0426 82.7282 34.1559C82.6534 34.2709 82.5502 34.3647 82.4141 34.4357C82.278 34.5068 82.1268 34.5477 81.953 34.5552V34.6021C82.2346 34.6217 82.4518 34.6959 82.6068 34.8259C82.7612 34.956 82.8376 35.1223 82.8376 35.325C82.8376 35.4838 82.791 35.6259 82.6957 35.7499C82.602 35.8739 82.4503 35.9737 82.244 36.0479C82.0378 36.1219 81.7766 36.1582 81.4641 36.1582H79.0772L79.0788 36.1598ZM81.2186 35.4611C81.4029 35.4611 81.539 35.4323 81.6248 35.3734C81.7112 35.3144 81.7546 35.2312 81.7546 35.1223C81.7546 35.0134 81.7127 34.9287 81.6279 34.8682C81.5437 34.8078 81.4076 34.7775 81.2186 34.7775H79.8619V34.3873H81.1343C81.3469 34.3873 81.5028 34.351 81.6049 34.28C81.7049 34.2074 81.7546 34.1106 81.7546 33.985C81.7546 33.8595 81.7049 33.7567 81.6049 33.6841C81.5044 33.6115 81.3469 33.5767 81.1343 33.5767H80.1089V35.4596H81.217L81.2186 35.4611Z" fill="black"/>
<path d="M83.527 36.1598V32.8826H84.6115V35.6168H84.6414L86.0761 32.8826H87.4077V36.1598H86.3232V33.4255H86.2933L84.8523 36.1598H83.527Z" fill="black"/>
<path d="M89.2461 36.1598V33.6705H87.8422V32.8841H91.7418V33.6705H90.3322V36.1598H89.2476H89.2461Z" fill="black"/>
<path d="M92.181 36.1598V32.8826H93.266V35.6168H93.2954L94.7306 32.8826H96.0622V36.1598H94.9772V33.4255H94.9479L93.5068 36.1598H92.181Z" fill="black"/>
<path d="M99.3882 36.1598V35.0513H97.7844V35.0225C97.6032 35.0225 97.4284 34.9817 97.2578 34.9C97.0877 34.8184 96.9469 34.7004 96.839 34.5477C96.7312 34.3934 96.6762 34.2104 96.6762 33.9972C96.6762 33.7839 96.7328 33.5919 96.8453 33.4225C96.9579 33.2531 97.128 33.1215 97.3578 33.0263C97.5875 32.931 97.8676 32.8826 98.2021 32.8826H100.474V36.1598H99.3897H99.3882ZM96.7375 36.1598L97.6718 35.0346V34.8773H98.9679L97.955 36.1598H96.7375ZM98.569 34.655H99.3882V33.5767H98.569C98.3879 33.5767 98.2408 33.5994 98.1267 33.6433C98.0126 33.6886 97.9283 33.7506 97.877 33.8293C97.8252 33.9094 97.7985 34.0047 97.7985 34.1182C97.7985 34.289 97.8613 34.4206 97.9864 34.5144C98.111 34.6081 98.3052 34.6535 98.5706 34.6535L98.569 34.655Z" fill="black"/>
<path d="M3.6635 42.0049L3.12273 41.2805L3.6635 40.553H4.1996L3.67443 41.2805L4.1996 42.0049H3.6635ZM4.52936 42.0049L3.9886 41.2805L4.52936 40.553H5.06704L4.54188 41.2805L5.06704 42.0049H4.52936Z" fill="black"/>
<path d="M5.22004 42.2802L6.41725 39.682H7.0315L8.23185 42.2802H7.58011L6.59857 39.9875H6.84395L5.85769 42.2802H5.22161H5.22004ZM5.81707 41.7236L5.98274 41.2669H7.36284L7.53165 41.7236H5.81707Z" fill="black"/>
<path d="M8.54161 42.28V40.2837H9.14022V42.28H8.54161ZM8.96204 41.5223V41.058H9.68255V41.5223H8.96204ZM9.85607 41.3483L9.29652 41.2894L10.0217 40.2837H10.6579L9.85607 41.3483ZM10.0014 42.28L9.3106 41.3333L9.79823 41.055L10.7063 42.28H10.0014Z" fill="black"/>
<path d="M11.9191 42.3088C11.6972 42.3088 11.4987 42.265 11.3252 42.1773C11.1517 42.0895 11.0157 41.967 10.9172 41.8113C10.8188 41.6555 10.7703 41.4786 10.7703 41.2805C10.7703 41.0824 10.8188 40.9024 10.9172 40.7481C11.0157 40.5939 11.1517 40.4729 11.3252 40.3836C11.4987 40.2959 11.6972 40.2521 11.9191 40.2521C12.141 40.2521 12.3254 40.2959 12.4864 40.3836C12.6474 40.4714 12.7662 40.5969 12.8428 40.7602L12.3786 41.0022C12.3254 40.9084 12.2582 40.8389 12.177 40.795C12.0957 40.7496 12.0082 40.7285 11.9144 40.7285C11.8128 40.7285 11.7206 40.7512 11.6377 40.795C11.5565 40.8389 11.4908 40.9024 11.4439 40.984C11.3971 41.0657 11.3736 41.164 11.3736 41.2805C11.3736 41.3969 11.3971 41.4952 11.4439 41.5769C11.4908 41.6586 11.5565 41.7221 11.6377 41.7659C11.719 41.8098 11.8112 41.8324 11.9144 41.8324C12.0082 41.8324 12.0973 41.8113 12.177 41.7674C12.2582 41.7236 12.3239 41.654 12.3786 41.5572L12.8428 41.8022C12.7662 41.9625 12.6474 42.088 12.4864 42.1757C12.3254 42.2635 12.1363 42.3073 11.9191 42.3073V42.3088Z" fill="black"/>
<path d="M14.1902 42.3088C13.9558 42.3088 13.7479 42.265 13.5713 42.1757C13.3931 42.0865 13.2556 41.9656 13.1587 41.8098C13.0618 41.654 13.0133 41.4786 13.0133 41.2805C13.0133 41.0824 13.0618 40.9024 13.1571 40.7481C13.2525 40.5939 13.3837 40.4729 13.551 40.3836C13.7166 40.2959 13.9058 40.2521 14.1152 40.2521C14.3247 40.2521 14.4997 40.2929 14.6622 40.3761C14.8248 40.4593 14.9529 40.5772 15.0483 40.733C15.1421 40.8873 15.1905 41.0733 15.1905 41.288C15.1905 41.3107 15.1905 41.3364 15.1874 41.3636C15.1843 41.3924 15.1827 41.4181 15.1796 41.4438H13.5041V41.1065H14.8654L14.6357 41.2064C14.6357 41.102 14.6138 41.0128 14.57 40.9356C14.5263 40.8585 14.4669 40.7995 14.3903 40.7557C14.3137 40.7118 14.2246 40.6906 14.1215 40.6906C14.0183 40.6906 13.9292 40.7118 13.8511 40.7557C13.7729 40.7995 13.712 40.86 13.6682 40.9372C13.6245 41.0158 13.6026 41.1065 13.6026 41.2139V41.3031C13.6026 41.412 13.6275 41.5073 13.6776 41.5905C13.7276 41.6736 13.7979 41.7372 13.8886 41.7795C13.9792 41.8234 14.0855 41.8445 14.209 41.8445C14.3184 41.8445 14.4153 41.8279 14.4981 41.7961C14.581 41.7644 14.6576 41.716 14.7263 41.651L15.0452 41.9852C14.9498 42.0895 14.831 42.1682 14.6888 42.2241C14.545 42.2801 14.3809 42.3073 14.1934 42.3073L14.1902 42.3088Z" fill="black"/>
<path d="M15.3668 42.2754L15.398 41.8005C15.4136 41.8036 15.4293 41.8051 15.4434 41.8066C15.4589 41.8066 15.473 41.8081 15.4855 41.8081C15.5574 41.8081 15.6137 41.7885 15.6543 41.7492C15.695 41.7098 15.7262 41.6553 15.7465 41.5873C15.7669 41.5193 15.7809 41.4421 15.7903 41.3559C15.7997 41.2697 15.8059 41.179 15.8106 41.0852L15.8419 40.2837H17.6065V42.28H17.0079V40.6179L17.1423 40.7586H16.2373L16.3639 40.6104L16.3373 41.1109C16.3295 41.2894 16.3154 41.4527 16.2936 41.601C16.2717 41.7492 16.2373 41.8777 16.1889 41.985C16.1404 42.0924 16.0748 42.1756 15.9935 42.2331C15.9122 42.2906 15.8075 42.3208 15.6793 42.3208C15.634 42.3208 15.584 42.3178 15.534 42.3102C15.4824 42.3026 15.4277 42.292 15.3683 42.277L15.3668 42.2754Z" fill="black"/>
<path d="M19.19 42.3088C18.9555 42.3088 18.7477 42.265 18.571 42.1757C18.3929 42.0865 18.2553 41.9656 18.1584 41.8098C18.0615 41.654 18.0131 41.4786 18.0131 41.2805C18.0131 41.0824 18.0615 40.9024 18.1568 40.7481C18.2522 40.5939 18.3835 40.4729 18.5507 40.3836C18.7164 40.2959 18.9055 40.2521 19.1149 40.2521C19.3244 40.2521 19.4994 40.2929 19.662 40.3761C19.8245 40.4593 19.9527 40.5772 20.048 40.733C20.1418 40.8873 20.1902 41.0733 20.1902 41.288C20.1902 41.3107 20.1902 41.3364 20.1872 41.3636C20.184 41.3924 20.1824 41.4181 20.1793 41.4438H18.5038V41.1065H19.8652L19.6354 41.2064C19.6354 41.102 19.6135 41.0128 19.5698 40.9356C19.526 40.8585 19.4666 40.7995 19.39 40.7557C19.3134 40.7118 19.2243 40.6906 19.1212 40.6906C19.0181 40.6906 18.929 40.7118 18.8508 40.7557C18.7727 40.7995 18.7117 40.86 18.6679 40.9372C18.6242 41.0158 18.6023 41.1065 18.6023 41.2139V41.3031C18.6023 41.412 18.6273 41.5073 18.6773 41.5905C18.7273 41.6736 18.7977 41.7372 18.8883 41.7795C18.979 41.8218 19.0853 41.8445 19.2088 41.8445C19.3181 41.8445 19.415 41.8279 19.4979 41.7961C19.5807 41.7644 19.6573 41.716 19.7261 41.651L20.0449 41.9852C19.9496 42.0895 19.8308 42.1682 19.6885 42.2241C19.5447 42.2801 19.3806 42.3073 19.1931 42.3073L19.19 42.3088Z" fill="black"/>
<path d="M20.6435 43V40.2839H21.2156V40.6922L21.2047 41.2865L21.2437 41.8763V43H20.6451H20.6435ZM21.8642 42.3089C21.6907 42.3089 21.5376 42.271 21.4078 42.197C21.2781 42.1228 21.1765 42.0094 21.1031 41.8567C21.0296 41.7039 20.9937 41.5118 20.9937 41.279C20.9937 41.0461 21.028 40.851 21.0968 40.6998C21.1656 40.5485 21.2656 40.4366 21.3953 40.3625C21.5251 40.2884 21.6814 40.2506 21.8627 40.2506C22.0565 40.2506 22.2315 40.2929 22.3862 40.3792C22.541 40.4638 22.6629 40.5833 22.7551 40.7375C22.8457 40.8903 22.8911 41.0718 22.8911 41.279C22.8911 41.4861 22.8457 41.6706 22.7551 41.8249C22.6644 41.9776 22.541 42.0971 22.3862 42.1818C22.2315 42.2665 22.0565 42.3073 21.8627 42.3073L21.8642 42.3089ZM21.7595 41.834C21.8595 41.834 21.9486 41.8113 22.0268 41.7674C22.1049 41.7221 22.1674 41.6586 22.2143 41.5769C22.2612 41.4937 22.2847 41.3954 22.2847 41.282C22.2847 41.1686 22.2612 41.0672 22.2143 40.9856C22.1674 40.9039 22.1049 40.8404 22.0268 40.7965C21.9486 40.7512 21.8595 40.73 21.7595 40.73C21.6595 40.73 21.5704 40.7527 21.4907 40.7965C21.411 40.8404 21.3485 40.9039 21.3031 40.9856C21.2578 41.0672 21.2343 41.1655 21.2343 41.282C21.2343 41.3985 21.2578 41.4937 21.3031 41.5769C21.3485 41.6601 21.4125 41.7236 21.4907 41.7674C21.5704 41.8113 21.6595 41.834 21.7595 41.834Z" fill="black"/>
<path d="M23.8805 42.3088C23.7195 42.3088 23.582 42.2816 23.4663 42.2286C23.3507 42.1757 23.2631 42.1031 23.2022 42.0109C23.1412 41.9186 23.1099 41.8173 23.1099 41.7023C23.1099 41.5874 23.1397 41.48 23.2006 41.3908C23.26 41.3016 23.3553 41.232 23.4866 41.1806C23.6164 41.1307 23.7867 41.105 23.9962 41.105H24.5447V41.4422H24.0618C23.9211 41.4422 23.8242 41.4649 23.7726 41.5088C23.7195 41.5526 23.6945 41.6086 23.6945 41.6751C23.6945 41.7492 23.7242 41.8082 23.7852 41.8521C23.8445 41.8959 23.9274 41.9171 24.0321 41.9171C24.1368 41.9171 24.2212 41.8944 24.3009 41.8491C24.3806 41.8037 24.4385 41.7356 24.4728 41.6464L24.565 41.9141C24.5213 42.0426 24.4416 42.1409 24.3275 42.2075C24.2118 42.274 24.0633 42.3073 23.882 42.3073L23.8805 42.3088ZM24.5103 42.2801V41.8899L24.4713 41.8052V41.108C24.4713 40.984 24.4322 40.8872 24.354 40.8192C24.2759 40.7496 24.1571 40.7148 23.9962 40.7148C23.8867 40.7148 23.7789 40.7315 23.6726 40.7647C23.5663 40.798 23.4757 40.8434 23.4022 40.9008L23.1881 40.497C23.3006 40.4199 23.4366 40.361 23.5945 40.3186C23.7523 40.2762 23.9133 40.2551 24.0774 40.2551C24.3916 40.2551 24.6354 40.3261 24.8104 40.4698C24.9839 40.6135 25.0715 40.8373 25.0715 41.1413V42.2801H24.5119H24.5103Z" fill="black"/>
<path d="M26.0326 42.28V40.6255L26.1671 40.7586H25.3356V40.2837H27.325V40.7586H26.4937L26.6283 40.6255V42.28H26.0342H26.0326Z" fill="black"/>
<path d="M28.5257 42.3088C28.3054 42.3088 28.1117 42.265 27.941 42.1757C27.7709 42.0865 27.6364 41.9656 27.538 41.8098C27.4396 41.6555 27.3909 41.4786 27.3909 41.2805C27.3909 41.0824 27.4396 40.9024 27.538 40.7481C27.6364 40.5939 27.7709 40.4729 27.941 40.3836C28.1117 40.2959 28.3054 40.2521 28.5257 40.2521C28.7461 40.2521 28.9366 40.2959 29.1088 40.3836C29.2805 40.4714 29.4135 40.5923 29.5119 40.7451C29.6087 40.8978 29.6574 41.0763 29.6574 41.279C29.6574 41.4816 29.6087 41.6525 29.5119 41.8083C29.415 41.964 29.2805 42.085 29.1088 42.1742C28.9366 42.2634 28.743 42.3073 28.5257 42.3073V42.3088ZM28.5257 41.834C28.6257 41.834 28.7147 41.8113 28.7948 41.7674C28.8743 41.7221 28.9366 41.6586 28.9822 41.5769C29.0272 41.4937 29.0507 41.3954 29.0507 41.282C29.0507 41.1685 29.0272 41.0672 28.9822 40.9856C28.9366 40.9039 28.8728 40.8404 28.7948 40.7965C28.7147 40.7512 28.6257 40.73 28.5257 40.73C28.4258 40.73 28.3368 40.7527 28.2567 40.7965C28.1771 40.8404 28.1148 40.9039 28.0677 40.9856C28.0206 41.0672 27.9976 41.1655 27.9976 41.282C27.9976 41.3984 28.0206 41.4937 28.0677 41.5769C28.1148 41.66 28.1787 41.7236 28.2567 41.7674C28.3368 41.8113 28.4258 41.834 28.5257 41.834Z" fill="black"/>
<path d="M30.0636 43V40.2839H30.6352V40.6922L30.6247 41.2865L30.6634 41.8763V43H30.0652H30.0636ZM31.2827 42.3089C31.1089 42.3089 30.956 42.271 30.8262 42.197C30.6964 42.1228 30.5949 42.0094 30.5211 41.8567C30.4478 41.7039 30.4117 41.5118 30.4117 41.279C30.4117 41.0461 30.4462 40.851 30.5153 40.6998C30.5839 40.5485 30.6839 40.4366 30.8137 40.3625C30.9435 40.2884 31.0995 40.2506 31.2811 40.2506C31.4748 40.2506 31.6496 40.2929 31.8045 40.3792C31.9595 40.4638 32.0809 40.5833 32.1736 40.7375C32.2641 40.8903 32.3091 41.0718 32.3091 41.279C32.3091 41.4861 32.2641 41.6706 32.1736 41.8249C32.0825 41.9776 31.9595 42.0971 31.8045 42.1818C31.6496 42.2665 31.4748 42.3073 31.2811 42.3073L31.2827 42.3089ZM31.1796 41.834C31.2795 41.834 31.3685 41.8113 31.4465 41.7674C31.5245 41.7221 31.5873 41.6586 31.6339 41.5769C31.681 41.4937 31.7046 41.3954 31.7046 41.282C31.7046 41.1686 31.681 41.0672 31.6339 40.9856C31.5873 40.9039 31.5245 40.8404 31.4465 40.7965C31.3685 40.7512 31.2795 40.73 31.1796 40.73C31.0791 40.73 30.9901 40.7527 30.9105 40.7965C30.8309 40.8404 30.7681 40.9039 30.7231 40.9856C30.6776 41.0672 30.654 41.1655 30.654 41.282C30.654 41.3985 30.6776 41.4937 30.7231 41.5769C30.7681 41.6601 30.8325 41.7236 30.9105 41.7674C30.9901 41.8113 31.0791 41.834 31.1796 41.834Z" fill="black"/>
<path d="M33.3005 42.3088C33.1393 42.3088 33.0016 42.2816 32.886 42.2286C32.7703 42.1757 32.6829 42.1031 32.6221 42.0109C32.5609 41.9186 32.53 41.8173 32.53 41.7023C32.53 41.5874 32.5593 41.48 32.6206 41.3908C32.6797 41.3016 32.775 41.232 32.9064 41.1806C33.0362 41.1307 33.2063 41.105 33.4162 41.105H33.9648V41.4422H33.4816C33.3408 41.4422 33.244 41.4649 33.1927 41.5088C33.1393 41.5526 33.1142 41.6086 33.1142 41.6751C33.1142 41.7492 33.144 41.8082 33.2047 41.8521C33.2644 41.8959 33.3471 41.9171 33.4518 41.9171C33.5565 41.9171 33.6413 41.8944 33.7208 41.8491C33.8004 41.8037 33.8569 41.7356 33.8925 41.6464L33.9847 41.9141C33.9412 42.0426 33.8616 42.1409 33.7475 42.2075C33.6319 42.274 33.4832 42.3073 33.3021 42.3073L33.3005 42.3088ZM33.9286 42.2801V41.8899L33.8894 41.8052V41.108C33.8894 40.984 33.8507 40.8872 33.7721 40.8192C33.6941 40.7496 33.5753 40.7148 33.4146 40.7148C33.3052 40.7148 33.1974 40.7315 33.0906 40.7647C32.9844 40.798 32.8938 40.8434 32.8205 40.9008L32.6064 40.497C32.719 40.4199 32.8551 40.361 33.0126 40.3186C33.1707 40.2762 33.3314 40.2551 33.4958 40.2551C33.8098 40.2551 34.0537 40.3261 34.2286 40.4698C34.4024 40.6135 34.4898 40.8373 34.4898 41.1413V42.2801H33.9302H33.9286Z" fill="black"/>
<path d="M37.5613 42.1167C37.2143 42.1167 36.9185 42.0729 36.6767 41.9836C36.4343 41.8944 36.2511 41.7659 36.1266 41.5965C36.0015 41.4271 35.9386 41.2199 35.9386 40.9749C35.9386 40.7299 36.0015 40.5227 36.1266 40.3534C36.2511 40.184 36.4359 40.0539 36.6767 39.9662C36.9185 39.877 37.2127 39.8331 37.5613 39.8331H37.7189C38.0643 39.8331 38.3564 39.877 38.5956 39.9662C38.8348 40.0555 39.0165 40.1855 39.1379 40.3564C39.2614 40.5273 39.3227 40.7329 39.3227 40.9764C39.3227 41.2199 39.2614 41.4226 39.1395 41.5934C39.018 41.7659 38.8411 41.8959 38.6066 41.9852C38.3721 42.0744 38.0879 42.1182 37.7503 42.1182H37.5629L37.5613 42.1167ZM37.6173 41.6524H37.6754C37.9094 41.6524 38.1052 41.6267 38.2596 41.5768C38.4145 41.5254 38.5302 41.4498 38.6066 41.35C38.6836 41.2502 38.7223 41.1231 38.7223 40.9704C38.7223 40.8177 38.6836 40.6906 38.6035 40.5923C38.5239 40.494 38.4082 40.4199 38.2564 40.3715C38.1052 40.3231 37.9125 40.2989 37.6833 40.2989H37.6173C37.375 40.2989 37.1734 40.3231 37.0159 40.37C36.8578 40.4169 36.739 40.491 36.6594 40.5908C36.5793 40.6906 36.5406 40.8191 36.5406 40.9749C36.5406 41.1307 36.5825 41.2593 36.6673 41.359C36.7515 41.4588 36.8735 41.533 37.0326 41.5814C37.1923 41.6298 37.3875 41.654 37.6173 41.654V41.6524ZM37.3456 42.395V39.5715H37.9172V42.395H37.3456Z" fill="black"/>
<path d="M39.7849 42.2802V39.682H40.9459C41.1866 39.682 41.3929 39.7199 41.5682 39.7955C41.7415 39.8711 41.876 39.9784 41.9713 40.1206C42.065 40.2612 42.1136 40.4306 42.1136 40.6257C42.1136 40.8208 42.0665 40.9857 41.9713 41.1263C41.876 41.2669 41.7431 41.3758 41.5682 41.4514C41.3944 41.5271 41.1866 41.5648 40.9459 41.5648H40.1288L40.4051 41.2941V42.2817H39.7833L39.7849 42.2802ZM40.4051 41.3592L40.1288 41.0733H40.9118C41.1039 41.0733 41.2463 41.034 41.3416 40.9539C41.4353 40.8752 41.484 40.7649 41.484 40.6242C41.484 40.4836 41.4368 40.3701 41.3416 40.29C41.2463 40.2113 41.1039 40.1705 40.9118 40.1705H40.1288L40.4051 39.8847V41.3577V41.3592Z" fill="black"/>
<path d="M42.523 42.2802V39.682H43.1406V41.3743L44.422 39.682H45.0051V42.2802H44.3911V40.5924L43.1092 42.2802H42.523Z" fill="black"/>
<path d="M45.6709 42.2802V39.682H46.2881V41.3743L47.57 39.682H48.1531V42.2802H47.5385V40.5924L46.2572 42.2802H45.6709Z" fill="black"/>
<path d="M49.1193 42.0049H48.5818L49.1068 41.2805L48.5818 40.553H49.1193L49.66 41.2805L49.1193 42.0049ZM49.9867 42.0049H49.4491L49.9741 41.2805L49.4491 40.553H49.9867L50.5274 41.2805L49.9867 42.0049Z" fill="black"/>
</g>
<defs>
<clipPath id="clip0_1109_817">
<rect width="134" height="26" fill="white" transform="translate(-27 17)"/>
</clipPath>
</defs>
</svg>
