<svg width="150" height="60" viewBox="0 0 150 60" fill="none" xmlns="http://www.w3.org/2000/svg">
<path d="M73.8154 33.4696H80.5347C80.5515 33.7147 80.5515 33.9937 80.5515 34.2219C80.5515 38.4276 77.5203 40.5917 74.2828 40.5917C70.3927 40.5917 67.6225 37.7724 67.6225 33.85C67.6225 30.0374 70.3927 27.104 74.2828 27.104C76.7162 27.104 78.9433 28.3805 80.0253 30.7475L78.4928 31.2336C77.6508 29.6359 76.0594 28.6975 74.2828 28.6975C71.4368 28.6975 69.3991 30.8025 69.3991 33.8457C69.3991 36.889 71.4368 38.9939 74.2828 38.9939C76.6572 38.9939 78.7159 37.6414 78.9601 35.0673H73.8154V33.4696Z" fill="black"/>
<path d="M82.6101 30.6504H84.1805V31.779C84.4415 30.9717 85.2666 30.4814 86.4076 30.4814C86.7275 30.4814 87.157 30.5194 87.3043 30.5743V32.096C87.0601 32.003 86.7444 31.9649 86.4244 31.9649C84.9635 31.9649 84.1805 32.7554 84.1805 34.1248V40.4185H82.6101V30.6504Z" fill="black"/>
<path d="M93.3335 30.4814C96.3648 30.4814 98.4993 32.6032 98.4993 35.5154C98.4993 38.4657 96.3858 40.5876 93.3167 40.5876C90.3233 40.5876 88.172 38.4657 88.172 35.5154C88.1678 32.6074 90.2644 30.4814 93.3335 30.4814ZM93.3125 39.104C95.4091 39.104 96.8489 37.6373 96.8489 35.5154C96.8489 33.4105 95.3333 31.9649 93.3125 31.9649C91.2916 31.9649 89.8139 33.3936 89.8139 35.5154C89.8139 37.6204 91.2538 39.104 93.3125 39.104Z" fill="black"/>
<path d="M107.664 38.8629C107.159 39.9154 105.925 40.5917 104.502 40.5917C101.862 40.5917 100.498 39.256 100.498 36.2508V30.6503H102.069V36.0226C102.069 37.6964 102.629 39.1039 104.818 39.1039C106.519 39.1039 107.664 38.0345 107.664 36.2128V30.6503H109.234V40.4184H107.664V38.8629Z" fill="black"/>
<path d="M113.613 38.9349V44.1761H112.043V30.6504H113.613V32.3961C114.27 31.2506 115.503 30.4814 117.301 30.4814C119.958 30.4814 122 32.3792 122 35.4605C122 38.5038 120.017 40.5876 117.171 40.5876C115.411 40.5876 114.308 39.9705 113.613 38.9349ZM120.349 35.4985C120.349 33.3217 118.947 31.9692 116.981 31.9692C114.922 31.9692 113.613 33.2668 113.613 35.3886V35.7479C113.613 38.0219 115.146 39.1082 117.036 39.1082C119.023 39.104 120.349 37.6965 120.349 35.4985Z" fill="black"/>
<path d="M52.0166 40.4181L49.3012 35.8912L46.6446 40.4181H43.4618L47.5498 33.6003L43.386 27.2686H46.7078L49.3769 31.4954L51.924 27.2686H55.1068L51.0104 33.8074L55.2205 40.4223L52.0166 40.4181Z" fill="black"/>
<path d="M65.5558 35.9504C65.5558 38.8457 63.3834 40.6463 60.5416 40.6463C58.0324 40.6463 55.9232 39.2557 55.7169 36.2294H58.4324C58.6176 37.5439 59.6659 38.1103 60.8069 38.1103C62.2299 38.1103 62.8445 37.1508 62.8445 35.9124C62.8445 34.6147 61.8889 33.8074 60.5627 33.8074C59.4597 33.8074 58.7271 34.3358 58.3903 34.8979H55.7969L56.6937 27.2686H65.2232L64.9369 29.8258H58.8366L58.5924 32.3492C58.5924 32.3492 59.2323 31.5926 61.1774 31.5926C63.5139 31.5926 65.5558 33.1692 65.5558 35.9504Z" fill="black"/>
<path d="M56.0369 25.6329C54.5929 19.9775 50.0081 16.0001 40.4892 16.0001H29L30.5577 26.5882C31.7323 36.1407 35.3698 39.2177 41.8112 40.3463C41.8407 40.3505 42.0469 40.3801 42.0469 40.1392C42.0469 40.0546 41.9922 39.9786 41.9206 39.9447C37.5675 38.1061 37.0707 32.0703 36.1402 26.0133L35.4245 21.1948H41.9838C48.0294 21.1948 52.6984 21.0976 55.6538 25.7851C55.6959 25.8527 55.7675 25.8992 55.8475 25.8992C55.9612 25.8992 56.0454 25.8062 56.0454 25.6921C56.0454 25.6709 56.0454 25.6498 56.0369 25.6329Z" fill="black"/>
</svg>
