<svg width="16" height="16" viewBox="0 0 16 16" fill="none" xmlns="http://www.w3.org/2000/svg">
<rect width="16" height="16" rx="3" fill="#ECEFFF"/>
<g clip-path="url(#clip0_790_2070)">
<path d="M14.5943 8.53759C14.2256 7.80465 13.6916 7.19228 13.0287 6.74767L11.4545 3.12305L9.25914 3.1487L7.98857 6.26322C7.73266 6.34942 7.4814 6.45002 7.23479 6.56502C6.98817 6.68002 6.7496 6.80783 6.51907 6.94846L3.31821 5.919L1.88742 7.58424L3.65214 11.12C3.56654 11.9178 3.69475 12.7256 4.0233 13.4835L5.34874 13.4618L5.36235 13.4554C5.28075 13.3382 5.21095 13.2196 5.15464 13.0988C4.81202 12.3641 4.7424 11.6242 4.88489 10.9262L2.95225 7.0525L6.70405 8.25988C7.0211 8.02507 7.36933 7.81714 7.7384 7.64503C8.10748 7.47293 8.4906 7.33983 8.87428 7.24789L10.361 3.59775L12.0861 7.5682C12.7124 7.90771 13.2344 8.43663 13.5771 9.17138C13.6318 9.28873 13.677 9.41674 13.7128 9.55121L14.5943 8.53759Z" fill="#4760F3"/>
</g>
<defs>
<clipPath id="clip0_790_2070">
<rect width="11.6708" height="7.69422" fill="white" transform="translate(1 7) rotate(-25)"/>
</clipPath>
</defs>
</svg>
