<svg xmlns="http://www.w3.org/2000/svg" xmlns:xlink="http://www.w3.org/1999/xlink"><symbol id="icon-close" viewBox="0 0 26 26"><path d="M5 5l8 8m8 8l-8-8m0 0l8-8m-8 8l-8 8" stroke="currentColor" stroke-width="2"/></symbol><symbol id="icon-linkedin" viewBox="0 0 24 24"><path fill-rule="evenodd" clip-rule="evenodd" d="M4.5 3.243a1.5 1.5 0 00-1.5 1.5v15a1.5 1.5 0 001.5 1.5h15a1.5 1.5 0 001.5-1.5v-15a1.5 1.5 0 00-1.5-1.5h-15zm4.02 4.002c.006.957-.71 1.546-1.559 1.542a1.502 1.502 0 01-1.493-1.54 1.493 1.493 0 011.54-1.505c.88.02 1.518.665 1.513 1.503zm3.76 2.76H9.758v8.56h2.664v-.2-1.14c-.002-1.014-.003-2.03.003-3.043.001-.246.012-.502.075-.737.238-.877 1.027-1.444 1.907-1.304.566.088.94.416 1.097.949.097.333.14.692.145 1.039.012 1.048.01 2.095.008 3.143v1.29h2.671v-.204-1.356c-.001-1.13-.002-2.26.001-3.39a6.039 6.039 0 00-.178-1.507c-.187-.734-.574-1.341-1.203-1.78-.445-.312-.935-.513-1.482-.536a15.191 15.191 0 01-.188-.01c-.28-.014-.564-.03-.831.024-.765.154-1.437.504-1.945 1.121-.06.07-.117.143-.203.25l-.02.024v-1.194zm-6.598 8.562h2.65V10.01h-2.65v8.557z"/></symbol><symbol id="icon-telegram" viewBox="0 0 24 24"><path d="M12 2C6.48 2 2 6.48 2 12s4.48 10 10 10 10-4.48 10-10S17.52 2 12 2zm4.64 6.8c-.15 1.58-.8 5.42-1.13 7.19-.14.75-.42 1-.68 1.03-.58.05-1.02-.38-1.58-.75-.88-.58-1.38-.94-2.23-1.5-.99-.65-.35-1.01.22-1.59.15-.15 2.71-2.48 2.76-2.69a.2.2 0 00-.05-.18c-.06-.05-.14-.03-.21-.02-.09.02-1.49.95-4.22 2.79-.4.27-.76.41-1.08.4-.36-.01-1.04-.2-1.55-.37-.63-.2-1.12-.31-1.08-.66.02-.18.27-.36.74-.55 2.92-1.27 4.86-2.11 5.83-2.51 2.78-1.16 3.35-1.36 3.73-1.36.08 0 .27.02.39.12.1.08.13.19.14.27-.01.06.01.24 0 .38z"/></symbol><symbol id="icon-x-twitter" viewBox="0 0 24 24"><path d="M17.176 4.243h2.76l-6.03 6.777L21 20.243h-5.554l-4.35-5.594-4.979 5.594H3.355l6.45-7.25L3 4.243h5.695l3.933 5.112 4.548-5.112zm-.969 14.375h1.53L7.864 5.782h-1.64l9.983 12.836z"/></symbol> <view id="icon-close-view" viewBox="0 0 26 26"/><view id="icon-linkedin-view" viewBox="0 36 24 24"/><view id="icon-telegram-view" viewBox="0 70 24 24"/><view id="icon-x-twitter-view" viewBox="0 104 24 24"/> <use xlink:href="#icon-close" x="0" y="0" width="26" height="26"/><use xlink:href="#icon-linkedin" x="0" y="36" width="24" height="24"/><use xlink:href="#icon-telegram" x="0" y="70" width="24" height="24"/><use xlink:href="#icon-x-twitter" x="0" y="104" width="24" height="24"/></svg>