<svg width="29" height="29" viewBox="0 0 29 29" fill="none" xmlns="http://www.w3.org/2000/svg">
<path d="M14 2C7.376 2 2 7.376 2 14C2 20.624 7.376 26 14 26C20.624 26 26 20.624 26 14C26 7.376 20.624 2 14 2ZM20 10C19.82 11.896 18.396 16.876 18 19C17.832 19.9 17.312 19.964 17 20C16.304 20.06 16.672 19.444 16 19C14.944 18.304 14.02 17.672 13 17C11.812 16.22 12.316 15.696 13 15C13.18 14.82 15.94 12.252 16 12C16.0083 11.9618 16.0105 12.0376 16 12C15.9895 11.9624 16.0268 12.0284 16 12C15.928 11.94 16.084 11.988 16 12C15.892 12.024 14.276 12.792 11 15C10.52 15.324 10.384 16.012 10 16C9.568 15.988 8.612 15.204 8 15C7.244 14.76 6.952 15.42 7 15C7.024 14.784 6.436 14.228 7 14C10.504 12.476 12.836 11.48 14 11C17.336 9.608 18.544 9 19 9C18.856 8.88 19.096 9 19 9C19.12 9.096 19.988 9.904 20 10C20.012 9.832 19.988 10.072 20 10Z" fill="currentColor"/>
</svg>
