<svg width="441" height="349" fill="none" xmlns="http://www.w3.org/2000/svg"><g clip-path="url(#a)"><path d="M174.229 324.801C192.496 345.107 260.2 313.374 325.953 254.226C391.707 195.078 430.404 131.098 412.137 110.792C394.61 91.3077 331.116 118.698 267.923 173.267C279.68 151.108 282.16 133.769 274.03 124.731C261.944 111.296 228.558 120.748 187.951 145.671C248.661 88.6842 282.781 28.2963 265.288 8.84954C247.022 -11.4566 179.317 20.2764 113.564 79.4243C47.8109 138.572 9.11378 202.552 27.3801 222.858C39.4659 236.294 73.5209 227.585 114.128 202.663C53.4178 259.649 18.6286 319.293 36.1218 338.74C53.6489 358.225 117.143 330.834 180.337 276.265C168.579 298.424 166.099 315.763 174.229 324.801Z" fill="#E9EBFF"/></g><defs><clipPath id="a"><rect width="441" height="349" fill="white"/></clipPath></defs></svg>