<svg width="145" height="60" fill="none" xmlns="http://www.w3.org/2000/svg"><g clip-path="url(#a)"><g clip-path="url(#b)"><path d="M39.9383 19.9207C38.7826 17.6439 37.1112 15.7404 35.0385 14.3567L30.1008 3.09895L23.2451 3.16562L19.2958 12.8236C18.4971 13.0896 17.7131 13.4003 16.9436 13.7557C16.1741 14.1111 15.4298 14.5064 14.7108 14.9414L4.70867 11.7278L0.250371 16.8872L5.78247 27.8704C5.51988 30.3457 5.92508 32.8533 6.95564 35.2072L11.0947 35.1476L11.1372 35.128C10.8817 34.7637 10.663 34.3952 10.4864 34.0201C9.41206 31.7379 9.19024 29.4414 9.63106 27.2761L3.57256 15.2433L15.2962 19.0123C16.285 18.2855 17.3712 17.6423 18.5228 17.1103C19.6743 16.5784 20.87 16.1676 22.0676 15.8846L26.6887 4.56568L32.0998 16.8975C34.0576 17.9548 35.691 19.5993 36.7653 21.8815C36.9369 22.2461 37.0789 22.6436 37.1914 23.0611L39.9383 19.9207Z" fill="white"/></g><g clip-path="url(#c)"><path d="M19.8096 23.3996V25.7973H25.0294V23.3996H19.8096ZM19.8096 28.0829V30.332H24.8627V28.0829H19.8096ZM20.6433 23.3996H17.9443V34.9816H20.6433V23.3996ZM28.3642 32.5979C28.3642 32.4109 28.4085 32.2539 28.4971 32.1268C28.5875 31.9996 28.7213 31.9033 28.8984 31.8379C29.0755 31.7725 29.3148 31.7398 29.6162 31.7398C30.0043 31.7398 30.3736 31.7921 30.7241 31.8968C31.0745 32.0015 31.3825 32.1529 31.6482 32.3511V31.2434C31.5163 31.0994 31.3166 30.9611 31.0491 30.8283C30.7815 30.6956 30.4622 30.5853 30.091 30.4974C29.718 30.4096 29.2978 30.3656 28.8306 30.3656C27.8753 30.3656 27.1368 30.5778 26.6149 31.0022C26.0911 31.4266 25.8292 32.0034 25.8292 32.7325C25.8292 33.2504 25.9545 33.6916 26.2051 34.0562C26.4557 34.4189 26.7892 34.6918 27.2055 34.875C27.6219 35.0564 28.075 35.1471 28.5649 35.1471C29.0548 35.1471 29.5107 35.062 29.9327 34.8919C30.3548 34.7199 30.6996 34.4656 30.9671 34.1291C31.2328 33.7925 31.3656 33.3822 31.3656 32.898L31.0999 31.9052C31.0999 32.2567 31.0217 32.554 30.8654 32.797C30.7109 33.04 30.5112 33.2223 30.2662 33.3439C30.0213 33.4654 29.7547 33.5261 29.4664 33.5261C29.2648 33.5261 29.0811 33.4897 28.9153 33.4168C28.7477 33.3457 28.6139 33.241 28.514 33.1027C28.4142 32.9662 28.3642 32.7979 28.3642 32.5979ZM26.3973 28.0324L27.2479 29.7038C27.3591 29.6365 27.5371 29.5505 27.7821 29.4458C28.0251 29.3411 28.3106 29.2504 28.6384 29.1738C28.9681 29.0971 29.3044 29.0588 29.6473 29.0588C29.8809 29.0588 30.0901 29.0803 30.2747 29.1233C30.4575 29.1682 30.6101 29.2401 30.7325 29.3392C30.855 29.4383 30.9464 29.557 31.0067 29.6954C31.0688 29.8337 31.0999 29.9964 31.0999 30.1833V34.9816H33.5163V29.6197C33.5163 29.0906 33.3608 28.6437 33.05 28.2792C32.7391 27.9165 32.3171 27.6388 31.7839 27.4463C31.2488 27.2518 30.643 27.1546 29.9667 27.1546C29.2432 27.1546 28.5762 27.249 27.9658 27.4379C27.3534 27.6248 26.8306 27.823 26.3973 28.0324ZM38.0352 32.0034V27.3706H35.4013V32.267C35.4013 33.1718 35.6208 33.8814 36.0598 34.3955C36.4988 34.9077 37.1959 35.1639 38.1511 35.1639C38.7182 35.1639 39.1911 35.0452 39.5698 34.8077C39.9485 34.5703 40.2537 34.2478 40.4855 33.8402V34.9816H43.0036V27.3706H40.4855V32.0034C40.4855 32.3006 40.4299 32.554 40.3187 32.7633C40.2076 32.9727 40.055 33.1335 39.8609 33.2457C39.6669 33.356 39.4304 33.4112 39.1516 33.4112C38.7408 33.4112 38.4526 33.2868 38.2868 33.0382C38.1191 32.7895 38.0352 32.4446 38.0352 32.0034ZM45.4058 32.2193L44.3544 33.8739C44.6992 34.1375 45.0723 34.3768 45.4736 34.5918C45.873 34.8068 46.3092 34.9779 46.7821 35.105C47.2531 35.2321 47.7618 35.2957 48.3082 35.2957C49.2295 35.2957 49.9436 35.0891 50.4504 34.6759C50.9553 34.2627 51.2078 33.6477 51.2078 32.8307C51.2078 32.3558 51.1051 31.9753 50.8997 31.6893C50.6944 31.4032 50.4221 31.1658 50.083 30.977C49.7439 30.79 49.3736 30.6246 48.9723 30.4806C48.5955 30.3366 48.2762 30.2179 48.0143 30.1244C47.7543 30.031 47.5546 29.9291 47.4151 29.8188C47.2757 29.7085 47.206 29.571 47.206 29.4065C47.206 29.2626 47.2644 29.1467 47.3812 29.0588C47.498 28.9709 47.6733 28.927 47.9069 28.927C48.2517 28.927 48.6294 29.0233 49.0402 29.2158C49.4509 29.4084 49.8183 29.6533 50.1423 29.9506L51.0411 28.3297C50.7415 28.109 50.4221 27.9165 50.083 27.752C49.7439 27.5856 49.3821 27.4528 48.9978 27.3537C48.6153 27.2546 48.2017 27.2051 47.7571 27.2051C47.2013 27.2051 46.7095 27.2874 46.2819 27.4519C45.8523 27.6183 45.5132 27.8613 45.2645 28.181C45.0139 28.5007 44.8886 28.8924 44.8886 29.356C44.8886 29.8421 44.9941 30.2394 45.2051 30.5479C45.4161 30.8564 45.6855 31.1013 46.0134 31.2826C46.3412 31.4659 46.6888 31.6238 47.0562 31.7566C47.4669 31.8762 47.792 31.9912 48.0312 32.1015C48.2705 32.2118 48.4401 32.3249 48.5399 32.4408C48.6398 32.5568 48.6897 32.6979 48.6897 32.8643C48.6897 33.04 48.6285 33.1831 48.506 33.2934C48.3836 33.4037 48.1951 33.4588 47.9408 33.4588C47.7618 33.4588 47.5508 33.4233 47.3077 33.3523C47.0628 33.2812 46.7821 33.1541 46.4656 32.9709C46.1471 32.7895 45.7939 32.539 45.4058 32.2193ZM56.8261 27.3706H51.6911V29.4402H56.8261V27.3706ZM55.4611 24.7232H53.0419V34.9816H55.4611V24.7232ZM65.5475 29.1906C65.5475 28.4727 65.7086 27.8604 66.0308 27.3537C66.353 26.8471 66.7788 26.461 67.3082 26.1955C67.8358 25.9301 68.4161 25.7973 69.0491 25.7973C69.6049 25.7973 70.0938 25.8665 70.5159 26.0048C70.9398 26.1432 71.3185 26.3311 71.652 26.5685C71.9854 26.806 72.2794 27.0565 72.5337 27.3201V24.311C72.0665 23.9464 71.5549 23.6595 70.9991 23.4501C70.4433 23.2407 69.7377 23.136 68.8824 23.136C67.9497 23.136 67.0887 23.279 66.2993 23.565C65.5099 23.8511 64.8316 24.2643 64.2645 24.8046C63.6974 25.3467 63.2584 25.9871 62.9475 26.7256C62.6366 27.464 62.4812 28.2857 62.4812 29.1906C62.4812 30.0955 62.6366 30.9171 62.9475 31.6556C63.2584 32.3941 63.6974 33.0344 64.2645 33.5766C64.8316 34.1169 65.5099 34.5301 66.2993 34.8161C67.0887 35.1022 67.9497 35.2452 68.8824 35.2452C69.7377 35.2452 70.4433 35.1405 70.9991 34.9311C71.5549 34.7217 72.0665 34.4357 72.5337 34.073V31.0611C72.2794 31.3247 71.9854 31.5724 71.652 31.8043C71.3185 32.0361 70.9398 32.224 70.5159 32.3679C70.0938 32.5119 69.6049 32.5839 69.0491 32.5839C68.4161 32.5839 67.8358 32.4511 67.3082 32.1856C66.7788 31.9202 66.353 31.5313 66.0308 31.019C65.7086 30.5068 65.5475 29.8973 65.5475 29.1906ZM74.1361 31.1761C74.1361 31.9706 74.3245 32.6652 74.7013 33.2597C75.08 33.8561 75.6029 34.3198 76.2698 34.6507C76.9368 34.9816 77.6867 35.1471 78.5194 35.1471C79.3541 35.1471 80.1021 34.9816 80.7634 34.6507C81.4247 34.3198 81.9466 33.8561 82.3291 33.2597C82.7134 32.6652 82.9056 31.9706 82.9056 31.1761C82.9056 30.3703 82.7134 29.6701 82.3291 29.0756C81.9466 28.4792 81.4247 28.0156 80.7634 27.6846C80.1021 27.3537 79.3541 27.1883 78.5194 27.1883C77.6867 27.1883 76.9368 27.3537 76.2698 27.6846C75.6029 28.0156 75.08 28.4792 74.7013 29.0756C74.3245 29.6701 74.1361 30.3703 74.1361 31.1761ZM76.7192 31.1761C76.7192 30.7797 76.803 30.4376 76.9707 30.1497C77.1365 29.8636 77.3532 29.643 77.6207 29.4879C77.8864 29.3345 78.186 29.2579 78.5194 29.2579C78.8416 29.2579 79.1393 29.3345 79.4125 29.4879C79.6857 29.643 79.9024 29.8636 80.0625 30.1497C80.2245 30.4376 80.3055 30.7797 80.3055 31.1761C80.3055 31.5724 80.2245 31.9118 80.0625 32.1941C79.9024 32.4745 79.6857 32.6923 79.4125 32.8475C79.1393 33.0008 78.8416 33.0774 78.5194 33.0774C78.186 33.0774 77.8864 33.0008 77.6207 32.8475C77.3532 32.6923 77.1365 32.4745 76.9707 32.1941C76.803 31.9118 76.7192 31.5724 76.7192 31.1761ZM89.3915 30.3488V34.9816H92.0085V30.0852C92.0085 29.1691 91.7919 28.4568 91.3585 27.9483C90.9252 27.4416 90.2309 27.1883 89.2757 27.1883C88.7085 27.1883 88.2328 27.3042 87.8485 27.536C87.466 27.7678 87.1636 28.0932 86.9413 28.5119V27.3706H84.4062V34.9816H86.9413V30.3488C86.9413 30.0515 86.9969 29.7982 87.108 29.5888C87.2192 29.3794 87.3746 29.2196 87.5743 29.1093C87.774 28.9971 88.0077 28.941 88.2752 28.941C88.6746 28.941 88.961 29.0625 89.1343 29.3056C89.3058 29.5486 89.3915 29.8964 89.3915 30.3488ZM94.4107 32.2193L93.3594 33.8739C93.7042 34.1375 94.0772 34.3768 94.4785 34.5918C94.878 34.8068 95.3141 34.9779 95.787 35.105C96.2599 35.2321 96.7686 35.2957 97.3131 35.2957C98.2345 35.2957 98.9485 35.0891 99.4554 34.6759C99.9603 34.2627 100.213 33.6477 100.213 32.8307C100.213 32.3558 100.11 31.9753 99.9047 31.6893C99.6993 31.4032 99.4271 31.1658 99.088 30.977C98.7488 30.79 98.3795 30.6246 97.9801 30.4806C97.6014 30.3366 97.2811 30.2179 97.0192 30.1244C96.7592 30.031 96.5595 29.9291 96.4201 29.8188C96.2807 29.7085 96.211 29.571 96.211 29.4065C96.211 29.2626 96.2694 29.1467 96.3862 29.0588C96.503 28.9709 96.6782 28.927 96.9118 28.927C97.2566 28.927 97.6344 29.0233 98.0451 29.2158C98.4577 29.4084 98.8251 29.6533 99.1473 29.9506L100.046 28.3297C99.7464 28.109 99.4271 27.9165 99.088 27.752C98.7488 27.5856 98.3871 27.4528 98.0027 27.3537C97.6203 27.2546 97.2067 27.2051 96.7621 27.2051C96.2063 27.2051 95.7145 27.2874 95.2868 27.4519C94.8591 27.6183 94.52 27.8613 94.2694 28.181C94.0188 28.5007 93.8935 28.8924 93.8935 29.356C93.8935 29.8421 93.9991 30.2394 94.2101 30.5479C94.4211 30.8564 94.6905 31.1013 95.0183 31.2826C95.3462 31.4659 95.6938 31.6238 96.0612 31.7566C96.4719 31.8762 96.7969 31.9912 97.0362 32.1015C97.2755 32.2118 97.445 32.3249 97.5449 32.4408C97.6447 32.5568 97.6947 32.6979 97.6947 32.8643C97.6947 33.04 97.6334 33.1831 97.511 33.2934C97.3904 33.4037 97.202 33.4588 96.9458 33.4588C96.7668 33.4588 96.5558 33.4233 96.3127 33.3523C96.0678 33.2812 95.787 33.1541 95.4705 32.9709C95.154 32.7895 94.8007 32.539 94.4107 32.2193ZM104.231 32.0034V27.3706H101.598V32.267C101.598 33.1718 101.817 33.8814 102.256 34.3955C102.695 34.9077 103.392 35.1639 104.347 35.1639C104.914 35.1639 105.387 35.0452 105.766 34.8077C106.145 34.5703 106.45 34.2478 106.682 33.8402V34.9816H109.2V27.3706H106.682V32.0034C106.682 32.3006 106.626 32.554 106.515 32.7633C106.404 32.9727 106.251 33.1335 106.057 33.2457C105.863 33.356 105.627 33.4112 105.348 33.4112C104.937 33.4112 104.649 33.2868 104.483 33.0382C104.315 32.7895 104.231 32.4446 104.231 32.0034ZM113.719 22.0759H111.184V34.9816H113.719V22.0759ZM119.922 27.3706H114.787V29.4402H119.922V27.3706ZM118.554 24.7232H116.138V34.9816H118.554V24.7232ZM120.841 24.5073C120.841 24.9055 120.985 25.2308 121.273 25.4832C121.561 25.7375 121.906 25.8646 122.307 25.8646C122.718 25.8646 123.065 25.7375 123.347 25.4832C123.632 25.2308 123.774 24.9055 123.774 24.5073C123.774 24.111 123.632 23.7885 123.347 23.5398C123.065 23.2912 122.718 23.1668 122.307 23.1668C121.906 23.1668 121.561 23.2912 121.273 23.5398C120.985 23.7885 120.841 24.111 120.841 24.5073ZM123.523 27.3706H121.089V34.9816H123.523V27.3706ZM130.577 30.3488V34.9816H133.194V30.0852C133.194 29.1691 132.977 28.4568 132.544 27.9483C132.11 27.4416 131.416 27.1883 130.461 27.1883C129.894 27.1883 129.418 27.3042 129.034 27.536C128.651 27.7678 128.349 28.0932 128.126 28.5119V27.3706H125.591V34.9816H128.126V30.3488C128.126 30.0515 128.182 29.7982 128.293 29.5888C128.404 29.3794 128.56 29.2196 128.759 29.1093C128.959 28.9971 129.193 28.941 129.46 28.941C129.86 28.941 130.146 29.0625 130.319 29.3056C130.491 29.5486 130.577 29.8964 130.577 30.3488ZM137.331 35.5284H134.895C134.951 36.2015 135.135 36.7941 135.446 37.3064C135.757 37.8187 136.221 38.2188 136.839 38.5067C137.455 38.7927 138.236 38.9357 139.182 38.9357C139.97 38.9357 140.681 38.7955 141.316 38.5151C141.949 38.2328 142.458 37.7888 142.842 37.183C143.224 36.5754 143.416 35.7864 143.416 34.8161V27.3706H140.999V34.8161C140.999 35.2798 140.913 35.6687 140.739 35.9828C140.568 36.2968 140.337 36.5343 140.047 36.6951C139.759 36.854 139.436 36.9334 139.08 36.9334C138.758 36.9334 138.469 36.8811 138.213 36.7764C137.958 36.6717 137.756 36.5146 137.605 36.3053C137.454 36.0959 137.363 35.8369 137.331 35.5284ZM134.728 31.0779C134.728 31.9267 134.903 32.6381 135.254 33.212C135.604 33.786 136.057 34.2188 136.613 34.5105C137.169 34.8021 137.758 34.9479 138.38 34.9479C139.026 34.9479 139.596 34.7965 140.089 34.4936C140.585 34.1908 140.977 33.7495 141.265 33.17C141.553 32.5904 141.697 31.8931 141.697 31.0779C141.697 30.2497 141.553 29.5486 141.265 28.9747C140.977 28.4007 140.585 27.9623 140.089 27.6594C139.596 27.3565 139.026 27.2051 138.38 27.2051C137.758 27.2051 137.169 27.3481 136.613 27.6342C136.057 27.9221 135.604 28.353 135.254 28.927C134.903 29.4991 134.728 30.2161 134.728 31.0779ZM137.379 31.0779C137.379 30.6797 137.463 30.3432 137.631 30.0684C137.796 29.7917 138.019 29.5823 138.298 29.4402C138.575 29.2962 138.88 29.2242 139.213 29.2242C139.424 29.2242 139.636 29.2626 139.849 29.3392C140.06 29.4159 140.251 29.5318 140.423 29.687C140.596 29.8421 140.736 30.0347 140.841 30.2647C140.947 30.4965 140.999 30.7676 140.999 31.0779C140.999 31.4855 140.91 31.8267 140.731 32.1015C140.554 32.3782 140.329 32.5857 140.055 32.7241C139.784 32.8606 139.503 32.9288 139.213 32.9288C138.88 32.9288 138.575 32.8578 138.298 32.7157C138.019 32.5717 137.796 32.3595 137.631 32.0791C137.463 31.7968 137.379 31.4631 137.379 31.0779Z" fill="white"/></g></g><defs><clipPath id="a"><rect width="145" height="60" fill="white"/></clipPath><clipPath id="b"><rect width="36.3531" height="23.9397" fill="white" transform="matrix(0.907834 -0.419339 0.425915 0.904767 -2.52466 15.0688)"/></clipPath><clipPath id="c"><rect width="125.471" height="16.8598" fill="white" transform="translate(17.9443 22.0764)"/></clipPath></defs></svg>