<svg width="150" height="60" fill="none" xmlns="http://www.w3.org/2000/svg"><path d="M39.993 37.1068V22.9678H43.9636V37.1068H39.993ZM46.6975 37.1068V26.8847H50.3747L50.5703 28.9482 49.7292 29.1775C49.8728 28.6935 50.1271 28.2667 50.492 27.8973 50.8703 27.5152 51.3202 27.2158 51.8416 26.9993 52.3633 26.7828 52.9174 26.6745 53.5042 26.6745 54.2866 26.6745 54.9516 26.8337 55.4993 27.1522 56.047 27.4706 56.4577 27.9419 56.7316 28.5661 57.0185 29.1775 57.1619 29.9226 57.1619 30.8016V37.1068H53.1913V31.1264C53.1913 30.8461 53.1457 30.6105 53.0543 30.4194 52.9632 30.2284 52.8263 30.0819 52.6436 29.98 52.4611 29.8781 52.246 29.8271 51.9981 29.8271 51.8025 29.8271 51.62 29.859 51.4505 29.9226 51.294 29.9736 51.1571 30.0564 51.0397 30.171 50.9223 30.2857 50.8312 30.4131 50.7659 30.5532 50.7007 30.6933 50.6681 30.8525 50.6681 31.0308V37.1068H48.6925C48.1971 37.1068 47.7799 37.1068 47.4407 37.1068 47.1149 37.1068 46.8671 37.1068 46.6975 37.1068ZM61.9941 37.1068 57.6518 26.8847H62.0723L64.2434 34.5083H63.1872L65.3387 26.8847H69.7592L65.2018 37.1068H61.9941ZM75.5079 37.2979C74.2952 37.2979 73.2521 37.0686 72.3783 36.61 71.5046 36.1515 70.8331 35.5273 70.3637 34.7376 69.8942 33.9351 69.6595 33.0179 69.6595 31.9862 69.6595 31.2219 69.79 30.515 70.0507 29.8653 70.3114 29.2157 70.6766 28.6552 71.146 28.1839 71.6286 27.6999 72.1892 27.3305 72.8282 27.0757 73.4801 26.8082 74.1909 26.6745 74.9602 26.6745 75.7294 26.6745 76.4272 26.8082 77.0531 27.0757 77.6921 27.3305 78.2398 27.6999 78.6961 28.1839 79.1524 28.6552 79.498 29.2157 79.7327 29.8653 79.9806 30.515 80.0912 31.2219 80.0652 31.9862L80.0457 32.7887H71.8502L71.4003 30.9735H76.8966L76.525 31.3557V31.0117C76.525 30.7697 76.4598 30.5595 76.3294 30.3812 76.212 30.1901 76.0424 30.0436 75.8208 29.9418 75.5992 29.8399 75.3383 29.7889 75.0384 29.7889 74.6603 29.7889 74.3407 29.8653 74.08 30.0182 73.8193 30.171 73.617 30.3876 73.4737 30.6678 73.3432 30.9481 73.2781 31.2856 73.2781 31.6805 73.2781 32.139 73.3758 32.5403 73.5714 32.8842 73.7802 33.2281 74.08 33.4956 74.4712 33.6867 74.8755 33.8778 75.3709 33.9733 75.9577 33.9733 76.3489 33.9733 76.6814 33.9287 76.9553 33.8395 77.2422 33.7376 77.542 33.5784 77.855 33.3619L79.6741 35.8649C79.1915 36.2343 78.7156 36.5209 78.2462 36.7247 77.7899 36.9285 77.3333 37.075 76.877 37.1641 76.4336 37.2533 75.9773 37.2979 75.5079 37.2979ZM85.4821 37.2979C84.3476 37.2979 83.3565 37.1323 82.509 36.8011 81.6744 36.4572 81.0225 36.0305 80.553 35.5209L82.8611 33.5912C83.2783 33.9478 83.7541 34.2153 84.2889 34.3936 84.8366 34.5592 85.2929 34.642 85.6581 34.642 85.7883 34.642 85.8993 34.6357 85.9906 34.6229 86.0949 34.5975 86.1731 34.5656 86.2253 34.5274 86.2905 34.4764 86.336 34.4255 86.3623 34.3745 86.4014 34.3236 86.4209 34.2599 86.4209 34.1835 86.4209 33.9924 86.3165 33.8523 86.108 33.7631 85.9906 33.7122 85.795 33.6485 85.5212 33.572 85.2602 33.4956 84.9148 33.4064 84.4845 33.3046 83.976 33.1772 83.5065 33.0179 83.0762 32.8269 82.6588 32.6358 82.3003 32.4129 82.0005 32.1581 81.6875 31.8779 81.4397 31.5595 81.2572 31.2028 81.0876 30.8461 81.0029 30.4449 81.0029 29.9991 81.0029 29.4768 81.1267 29.0119 81.3745 28.6043 81.6221 28.1967 81.9613 27.8528 82.3916 27.5725 82.822 27.2795 83.3043 27.0566 83.8391 26.9038 84.3736 26.7509 84.9213 26.6745 85.4821 26.6745 86.1209 26.6745 86.7143 26.7382 87.262 26.8656 87.8225 26.9802 88.3442 27.1522 88.8268 27.3814 89.3222 27.598 89.7721 27.8591 90.1764 28.1648L88.1617 30.3621C87.9399 30.1838 87.6792 30.0118 87.3794 29.8462 87.0924 29.6806 86.7859 29.5469 86.4601 29.445 86.1471 29.3303 85.8537 29.273 85.5799 29.273 85.4363 29.273 85.3125 29.2858 85.2082 29.3112 85.1169 29.324 85.0386 29.3558 84.9735 29.4068 84.9082 29.445 84.8562 29.4959 84.817 29.5596 84.7908 29.6106 84.7779 29.6743 84.7779 29.7507 84.7779 29.8526 84.8104 29.9481 84.8757 30.0373 84.9408 30.1265 85.0451 30.2029 85.1887 30.2666 85.306 30.3175 85.5016 30.3876 85.7755 30.4767 86.0622 30.5659 86.4796 30.6869 87.0273 30.8398 87.6141 31.0054 88.1291 31.1964 88.5725 31.413 89.0288 31.6295 89.394 31.8843 89.6678 32.1772 89.8503 32.3811 89.9937 32.6103 90.0981 32.8651 90.2024 33.1198 90.2546 33.3937 90.2546 33.6867 90.2546 34.3873 90.0459 35.0114 89.6287 35.5592 89.2244 36.0941 88.6636 36.5209 87.9466 36.8393 87.2293 37.145 86.4078 37.2979 85.4821 37.2979ZM92.3637 37.1068V24.3052H96.3343V37.1068H92.3637ZM90.7403 30.1328V26.8847H98.0556V30.1328H90.7403ZM103.724 37.1068V23.732H107.949V33.5912H113.817V37.1068H103.724ZM119.317 37.2788C118.443 37.2788 117.667 37.0558 116.989 36.61 116.311 36.1515 115.777 35.5273 115.385 34.7376 114.994 33.9351 114.799 33.0179 114.799 31.9862 114.799 30.9417 114.988 30.0245 115.366 29.2348 115.757 28.4323 116.292 27.8082 116.97 27.3623 117.661 26.9038 118.456 26.6745 119.356 26.6745 119.825 26.6745 120.256 26.7382 120.647 26.8656 121.038 26.9929 121.384 27.1713 121.684 27.4006 121.984 27.6298 122.244 27.8973 122.466 28.203 122.688 28.496 122.877 28.8145 123.033 29.1584L122.231 29.1393V26.8847H126.124V37.1068H122.133V34.6038L123.014 34.6802C122.883 35.0496 122.701 35.3936 122.466 35.712 122.244 36.0305 121.977 36.3043 121.664 36.5336 121.351 36.7629 120.999 36.9476 120.608 37.0877 120.217 37.2151 119.786 37.2788 119.317 37.2788ZM120.451 34.1261C120.83 34.1261 121.149 34.0434 121.41 33.8778 121.684 33.7122 121.886 33.4702 122.016 33.1517 122.16 32.8332 122.231 32.4447 122.231 31.9862 122.231 31.5276 122.16 31.1391 122.016 30.8207 121.886 30.4895 121.684 30.2411 121.41 30.0755 121.149 29.9099 120.83 29.8271 120.451 29.8271 120.073 29.8271 119.754 29.9099 119.493 30.0755 119.232 30.2411 119.03 30.4895 118.887 30.8207 118.756 31.1391 118.691 31.5276 118.691 31.9862 118.691 32.4447 118.756 32.8332 118.887 33.1517 119.03 33.4702 119.232 33.7122 119.493 33.8778 119.754 34.0434 120.073 34.1261 120.451 34.1261ZM134.94 37.317C134.457 37.317 134.001 37.2597 133.57 37.145 133.14 37.0304 132.755 36.8712 132.416 36.6673 132.09 36.4635 131.816 36.2215 131.595 35.9413 131.373 35.661 131.23 35.3553 131.165 35.0242L131.966 34.8522 131.654 37.1068H128.074V22.9678H132.064V29.3877L131.184 29.1202C131.262 28.7762 131.412 28.4578 131.634 28.1648 131.869 27.8591 132.149 27.598 132.475 27.3814 132.801 27.1522 133.166 26.9802 133.57 26.8656 133.974 26.7382 134.398 26.6745 134.842 26.6745 135.728 26.6745 136.511 26.9038 137.189 27.3623 137.88 27.8209 138.421 28.4514 138.812 29.2539 139.204 30.0564 139.399 30.9735 139.399 32.0053 139.399 33.0498 139.204 33.9733 138.812 34.7758 138.434 35.5655 137.906 36.1897 137.228 36.6482 136.563 37.0941 135.8 37.317 134.94 37.317ZM133.746 34.1644C134.124 34.1644 134.444 34.0816 134.705 33.916 134.966 33.7376 135.161 33.4893 135.292 33.1708 135.435 32.8523 135.507 32.4639 135.507 32.0053 135.507 31.5467 135.435 31.1582 135.292 30.8398 135.161 30.5086 134.966 30.2602 134.705 30.0946 134.444 29.929 134.124 29.8462 133.746 29.8462 133.368 29.8462 133.042 29.929 132.768 30.0946 132.507 30.2602 132.305 30.5086 132.162 30.8398 132.032 31.1582 131.966 31.5467 131.966 32.0053 131.966 32.4639 132.032 32.8523 132.162 33.1708 132.305 33.4893 132.507 33.7376 132.768 33.916 133.042 34.0816 133.368 34.1644 133.746 34.1644ZM27.6514 18.466H32.0015C34.5762 18.466 36.4122 20.9055 35.6444 23.3062L31.2294 37.1068H21.6881L27.6514 18.466Z" fill="black"/><path fill-rule="evenodd" clip-rule="evenodd" d="M22.196 28.8084C22.58 27.6081 21.662 26.3883 20.3746 26.3883H13.4289L11.5484 32.2666C10.7804 34.6673 12.6164 37.1068 15.1912 37.1068H19.5413L22.196 28.8084Z" fill="black"/><path d="M25.5046 18.466H18.7692C17.0999 18.466 15.6243 19.5258 15.1264 21.0822L14.0998 24.2913H20.8352C22.5045 24.2913 23.98 23.2315 24.478 21.6751L25.5046 18.466Z" fill="black"/></svg>