<svg width="150" height="60" fill="none" xmlns="http://www.w3.org/2000/svg"><path d="M51.9893 35.925V23.99H55.7658C56.6239 23.99 57.369 24.1491 58.0013 24.4674 58.6448 24.7857 59.1359 25.2232 59.4746 25.7802 59.8133 26.3372 59.9827 26.9737 59.9827 27.6898 59.9827 28.3945 59.8133 29.0254 59.4746 29.5824 59.1359 30.1394 58.6448 30.5769 58.0013 30.8952 57.369 31.2135 56.6239 31.3726 55.7658 31.3726H53.4457V29.4971H55.7658C56.2174 29.4971 56.607 29.4233 56.9344 29.2755 57.2617 29.1164 57.5101 28.9004 57.6795 28.6276 57.8489 28.3434 57.9335 28.0308 57.9335 27.6898 57.9335 27.3374 57.8489 27.0249 57.6795 26.7521 57.5101 26.4679 57.2617 26.252 56.9344 26.1042 56.607 25.9451 56.2174 25.8655 55.7658 25.8655H53.9876V35.925H51.9893ZM64.7456 36.1125C64.0004 36.1125 63.2948 35.925 62.6287 35.5499 61.9739 35.1634 61.4489 34.6292 61.0537 33.9472 60.6586 33.2538 60.461 32.4865 60.461 31.6454 60.461 30.7929 60.6586 30.0257 61.0537 29.3437 61.4489 28.6617 61.9739 28.1331 62.6287 27.758 63.2948 27.3715 64.0004 27.1783 64.7456 27.1783 65.2085 27.1783 65.6375 27.2409 66.0327 27.3659 66.4279 27.4796 66.7778 27.6557 67.0826 27.8944 67.3988 28.1331 67.6811 28.423 67.9294 28.764L67.6246 29.105V27.3659H69.4705V35.925H67.6246V34.1688L67.9294 34.5269C67.5568 35.0498 67.1053 35.4476 66.5746 35.7204 66.0553 35.9818 65.4456 36.1125 64.7456 36.1125ZM65.0165 34.3393C65.502 34.3393 65.948 34.22 66.3544 33.9813 66.7609 33.7426 67.077 33.4243 67.3028 33.0265 67.5399 32.6173 67.6584 32.1569 67.6584 31.6454 67.6584 31.1453 67.5399 30.6906 67.3028 30.2814 67.077 29.8608 66.7609 29.5312 66.3544 29.2925 65.948 29.0538 65.502 28.9345 65.0165 28.9345 64.5198 28.9345 64.0682 29.0538 63.6617 29.2925 63.2666 29.5312 62.9504 29.8608 62.7134 30.2814 62.4876 30.6906 62.3746 31.1453 62.3746 31.6454 62.3746 32.1569 62.4876 32.6173 62.7134 33.0265 62.9504 33.4243 63.2666 33.7426 63.6617 33.9813 64.0682 34.22 64.5198 34.3393 65.0165 34.3393ZM74.7149 36.1125C74.0149 36.1125 73.3939 35.9932 72.852 35.7545 72.3214 35.5158 71.9036 35.1862 71.5988 34.7656 71.294 34.3337 71.1302 33.8449 71.1077 33.2993H72.9875C73.0214 33.6403 73.1907 33.9245 73.4956 34.1518 73.8117 34.3791 74.2182 34.4928 74.7149 34.4928 75.1665 34.4928 75.5222 34.4132 75.7818 34.2541 76.0528 34.0836 76.1883 33.8392 76.1883 33.5209 76.1883 33.2936 76.1092 33.1061 75.9512 32.9583 75.8044 32.8105 75.6068 32.6969 75.3584 32.6173 75.1213 32.5377 74.7883 32.4524 74.3593 32.3615 73.727 32.2024 73.2077 32.0432 72.8012 31.8841 72.4061 31.725 72.0617 31.4693 71.7682 31.1169 71.4859 30.7645 71.3448 30.2814 71.3448 29.6676 71.3448 29.2016 71.4859 28.781 71.7682 28.4059 72.0617 28.0194 72.4569 27.7183 72.9536 27.5023 73.4504 27.2863 74.0036 27.1783 74.6133 27.1783 75.2004 27.1783 75.7366 27.2977 76.2221 27.5364 76.7189 27.7637 77.1197 28.0876 77.4245 28.5082 77.7294 28.9174 77.8874 29.3778 77.8987 29.8893H76.0358C76.0133 29.5824 75.8665 29.3266 75.5955 29.122 75.3246 28.906 74.9746 28.7981 74.5455 28.7981 74.1617 28.7981 73.8512 28.8777 73.6141 29.0368 73.377 29.1846 73.2585 29.3892 73.2585 29.6506 73.2585 29.8666 73.3375 30.0484 73.4956 30.1962 73.6536 30.3326 73.8512 30.4405 74.0883 30.5201 74.3254 30.5997 74.6585 30.6906 75.0875 30.7929 75.7197 30.9407 76.2335 31.0942 76.6286 31.2533 77.035 31.4124 77.3794 31.6681 77.6616 32.0205 77.9552 32.3729 78.1019 32.8446 78.1019 33.4357 78.1019 33.9813 77.9552 34.4587 77.6616 34.8679 77.3794 35.2771 76.9786 35.5896 76.4592 35.8056 75.9512 36.0102 75.3698 36.1125 74.7149 36.1125ZM79.8935 35.925V23.649H81.7903V28.9686L81.4177 28.7299C81.6548 28.3775 81.9258 28.0876 82.2306 27.8603 82.5354 27.633 82.8572 27.4625 83.1959 27.3488 83.5459 27.2351 83.9184 27.1783 84.3136 27.1783 84.9911 27.1783 85.5894 27.3432 86.1088 27.6728 86.6281 27.9911 87.0345 28.4344 87.3281 29.0027 87.6216 29.5597 87.7684 30.1848 87.7684 30.8782V35.925H85.8717V31.151C85.8717 30.7191 85.7926 30.3382 85.6346 30.0086 85.4878 29.6676 85.262 29.4062 84.9572 29.2243 84.6524 29.0311 84.2967 28.9345 83.8903 28.9345 83.4951 28.9345 83.1338 29.0311 82.8064 29.2243 82.4903 29.4175 82.2418 29.6847 82.0613 30.0257 81.8806 30.3553 81.7903 30.7304 81.7903 31.151V35.925H79.8935ZM93.4324 36.1125C92.6872 36.1125 91.9815 35.925 91.3155 35.5499 90.6606 35.1634 90.1356 34.6292 89.7405 33.9472 89.3453 33.2538 89.1477 32.4865 89.1477 31.6454 89.1477 30.7929 89.3453 30.0257 89.7405 29.3437 90.1356 28.6617 90.6606 28.1331 91.3155 27.758 91.9815 27.3715 92.6872 27.1783 93.4324 27.1783 93.8952 27.1783 94.3242 27.2409 94.7194 27.3659 95.1146 27.4796 95.4646 27.6557 95.7694 27.8944 96.0855 28.1331 96.3678 28.423 96.6162 28.764L96.3113 29.105V27.3659H98.1573V35.925H96.3113V34.1688L96.6162 34.5269C96.2436 35.0498 95.792 35.4476 95.2614 35.7204 94.742 35.9818 94.1323 36.1125 93.4324 36.1125ZM93.7033 34.3393C94.1887 34.3393 94.6348 34.22 95.0412 33.9813 95.4477 33.7426 95.7637 33.4243 95.9896 33.0265 96.2267 32.6173 96.3452 32.1569 96.3452 31.6454 96.3452 31.1453 96.2267 30.6906 95.9896 30.2814 95.7637 29.8608 95.4477 29.5312 95.0412 29.2925 94.6348 29.0538 94.1887 28.9345 93.7033 28.9345 93.2065 28.9345 92.7549 29.0538 92.3485 29.2925 91.9533 29.5312 91.6372 29.8608 91.4001 30.2814 91.1743 30.6906 91.0614 31.1453 91.0614 31.6454 91.0614 32.1569 91.1743 32.6173 91.4001 33.0265 91.6372 33.4243 91.9533 33.7426 92.3485 33.9813 92.7549 34.22 93.2065 34.3393 93.7033 34.3393ZM100.523 35.925V23.99H104.299C105.157 23.99 105.903 24.1491 106.535 24.4674 107.178 24.7857 107.669 25.2232 108.008 25.7802 108.347 26.3372 108.516 26.9737 108.516 27.6898 108.516 28.3945 108.347 29.0254 108.008 29.5824 107.669 30.1394 107.178 30.5769 106.535 30.8952 105.903 31.2135 105.157 31.3726 104.299 31.3726H101.979V29.4971H104.299C104.751 29.4971 105.141 29.4233 105.468 29.2755 105.795 29.1164 106.043 28.9004 106.213 28.6276 106.382 28.3434 106.467 28.0308 106.467 27.6898 106.467 27.3374 106.382 27.0249 106.213 26.7521 106.043 26.4679 105.795 26.252 105.468 26.1042 105.141 25.9451 104.751 25.8655 104.299 25.8655H102.521V35.925H100.523ZM113.279 36.1125C112.534 36.1125 111.828 35.925 111.162 35.5499 110.507 35.1634 109.982 34.6292 109.587 33.9472 109.192 33.2538 108.994 32.4865 108.994 31.6454 108.994 30.7929 109.192 30.0257 109.587 29.3437 109.982 28.6617 110.507 28.1331 111.162 27.758 111.828 27.3715 112.534 27.1783 113.279 27.1783 113.742 27.1783 114.171 27.2409 114.566 27.3659 114.961 27.4796 115.311 27.6557 115.616 27.8944 115.932 28.1331 116.215 28.423 116.463 28.764L116.158 29.105V27.3659H118.004V35.925H116.158V34.1688L116.463 34.5269C116.09 35.0498 115.639 35.4476 115.108 35.7204 114.589 35.9818 113.979 36.1125 113.279 36.1125ZM113.55 34.3393C114.035 34.3393 114.481 34.22 114.888 33.9813 115.294 33.7426 115.61 33.4243 115.836 33.0265 116.073 32.6173 116.192 32.1569 116.192 31.6454 116.192 31.1453 116.073 30.6906 115.836 30.2814 115.61 29.8608 115.294 29.5312 114.888 29.2925 114.481 29.0538 114.035 28.9345 113.55 28.9345 113.053 28.9345 112.601 29.0538 112.195 29.2925 111.8 29.5312 111.484 29.8608 111.246 30.2814 111.021 30.6906 110.908 31.1453 110.908 31.6454 110.908 32.1569 111.021 32.6173 111.246 33.0265 111.484 33.4243 111.8 33.7426 112.195 33.9813 112.601 34.22 113.053 34.3393 113.55 34.3393ZM120.742 39.335 122.909 34.4757 123.18 33.9301 126.026 27.3659H128.058L122.723 39.335H120.742ZM122.943 35.9932 118.896 27.3659H120.979L123.976 33.9642 122.943 35.9932ZM36.9146 35.925C41.647 35.925 45.0935 32.4551 45.0935 28.175 45.0935 23.8949 41.647 20.425 37.3957 20.425 33.1444 20.425 29.6978 23.8156 29.6978 28.6594V35.925H36.9146ZM29.6978 35.925V39.4125C29.6978 41.3385 28.1469 42.9 26.2338 42.9 24.3208 42.9 22.7698 41.3385 22.7698 39.4125 22.7698 37.4865 24.3208 35.925 26.2338 35.925H29.6978Z" fill="black"/></svg>