<svg width="67" height="26" fill="none" xmlns="http://www.w3.org/2000/svg"><g clip-path="url(#a)"><path opacity="0.45" d="M9.24537 8.47571 1.72191 4.15845 0 7.11117 7.52454 11.396 9.21391 10.4442 9.24537 10.4118V8.47571ZM14.3144 11.396 12.625 12.3802V14.3487L16.3227 16.4749V12.5704L14.3144 11.396Z" fill="#222427"/><path opacity="0.8" d="M10.9366 9.45874L9.24402 10.4106V8.47559L10.9366 9.45874Z" fill="#222427"/><path opacity="0.45" d="M12.5927 0H9.21399L9.24546 8.4757L10.9348 9.45994L12.6253 8.4757L12.5927 0Z" fill="#222427"/><path d="M12.6253 12.3804V25.0134H9.21399V14.3489H9.24437L10.937 13.3657 12.6253 12.3804ZM43.3881 20.4746 46.0974 22.1255C44.2486 23.9027 42.6861 25.2683 39.0199 25.2683 33.5048 25.2683 31.8154 21.4913 31.8154 19.3002 31.8154 14.1262 36.9161 13.2371 38.7649 13.2371 45.045 13.2371 46.1929 17.2054 45.8424 19.713H35.3862C35.3862 21.1736 36.7566 22.7607 39.1794 22.7607 40.7418 22.7607 42.5266 21.8716 43.3871 20.4757L43.3881 20.4746ZM35.6097 17.7131H42.2402C42.0167 16.6976 40.8058 15.682 38.9244 15.682 37.043 15.682 35.8636 16.6025 35.6086 17.7131H35.6097ZM58.0213 18.4434C59.8062 18.8874 60.8272 20.0618 60.7946 21.5538 60.7946 24.7918 56.9049 25.2682 55.0246 25.2682 52.5062 25.2682 49.6364 24.5703 47.7246 22.1578L50.5934 20.5707C51.2628 21.5863 52.7612 22.8244 55.0886 22.8244 56.6825 22.8244 57.6069 22.5705 57.6394 21.8726 57.6709 20.6031 54.3236 20.3492 52.8893 20.158 52.2198 20.0629 48.4581 19.3639 48.4581 16.825 48.4581 15.3643 50.0834 13.238 54.2922 13.238 58.5009 13.238 60.3172 14.8565 60.5722 15.3016 59.6792 15.8094 58.8188 16.3172 57.9899 16.7936 56.715 15.5868 54.7066 15.5242 53.9732 15.5242 52.3478 15.5242 51.7739 16.0633 51.7739 16.5397 51.7739 17.6828 54.6426 17.5877 58.0224 18.4445L58.0213 18.4434ZM65.8959 12.4753V25.0144H62.4846V14.4114L65.8959 12.4753Z" fill="#222427"/><path opacity="0.8" d="M9.24428 10.4106V12.4137L7.52454 11.397L9.24428 10.4106Z" fill="#222427"/><path opacity="0.45" d="M9.24537 12.4116L7.52454 11.396L0 15.7133L1.72191 18.666L9.24537 14.3487V12.4116Z" fill="#222427"/><path opacity="0.8" d="M10.9366 13.3656 9.24402 14.3488V12.4138L10.9366 13.3656ZM12.6252 8.47559V10.4106L10.9369 9.45874 12.6252 8.47559ZM14.3144 11.397 12.625 12.3802V10.4441L14.3144 11.397Z" fill="#222427"/><path d="M12.6249 10.4108V12.3804L10.9366 13.3657L9.24402 12.4139V10.4108L10.9366 9.45898L12.6249 10.4108Z" fill="#222427"/><path opacity="0.45" d="M21.8367 7.11131L14.3144 11.3972L12.625 10.4443V8.47585L20.1474 4.15967L21.8367 7.11131Z" fill="#222427"/><path d="M66.0543 10.952 64.1739 12 62.3251 10.952V8.82468L64.1739 7.74536 66.0543 8.82468V10.952ZM29.4256 18.316C29.4256 15.9985 27.8957 13.3321 23.815 13.3634 21.7112 13.3634 20.7227 13.9025 19.6073 14.4741L16.3241 12.5693V25.0133H19.7354V18.3149C19.7039 16.9179 21.2023 15.6171 22.9231 15.6171 24.644 15.6171 26.0154 16.569 26.0154 18.3149V25.0133H29.4267V18.3149L29.4256 18.316Z" fill="#222427"/></g><defs><clipPath id="a"><rect width="67" height="26" fill="white"/></clipPath></defs></svg>