<svg xmlns="http://www.w3.org/2000/svg" xmlns:xlink="http://www.w3.org/1999/xlink"><symbol id="icon-tg" viewBox="0 0 29 29"><path d="M14 2C7.376 2 2 7.376 2 14s5.376 12 12 12 12-5.376 12-12S20.624 2 14 2zm6 8c-.18 1.896-1.604 6.876-2 9-.168.9-.688.964-1 1-.696.06-.328-.556-1-1-1.056-.696-1.98-1.328-3-2-1.188-.78-.684-1.304 0-2 .18-.18 2.94-2.748 3-3 .008-.038.01.038 0 0s.027.028 0 0c-.072-.06.084-.012 0 0-.108.024-1.724.792-5 3-.48.324-.616 1.012-1 1-.432-.012-1.388-.796-2-1-.756-.24-1.048.42-1 0 .024-.216-.564-.772 0-1 3.504-1.524 5.836-2.52 7-3 3.336-1.392 4.544-2 5-2-.144-.12.096 0 0 0 .12.096.988.904 1 1 .012-.168-.012.072 0 0z" fill="currentColor"/></symbol> <view id="icon-tg-view" viewBox="0 0 29 29"/> <use xlink:href="#icon-tg" x="0" y="0" width="29" height="29"/></svg>